<?xml version="1.0" encoding="utf-8"?>
<!-- Generator: Adobe Illustrator 16.0.0, SVG Export Plug-In . SVG Version: 6.00 Build 0)  -->
<!DOCTYPE svg PUBLIC "-//W3C//DTD SVG 1.1//EN" "http://www.w3.org/Graphics/SVG/1.1/DTD/svg11.dtd">
<svg version="1.1" id="Capa_1" xmlns="http://www.w3.org/2000/svg" xmlns:xlink="http://www.w3.org/1999/xlink" x="0px" y="0px"
	 width="155px" height="188.869px" viewBox="0 0 155 188.869" enable-background="new 0 0 155 188.869" xml:space="preserve">
<g>
	
		<linearGradient id="SVGID_1_" gradientUnits="userSpaceOnUse" x1="7.2998" y1="95.4346" x2="147.7002" y2="95.4346" gradientTransform="matrix(1 0 0 -1 0 189.8691)">
		<stop  offset="0" style="stop-color:#15B7FF"/>
		<stop  offset="0.2478" style="stop-color:#2DC2FF"/>
		<stop  offset="0.7507" style="stop-color:#69C8FF"/>
		<stop  offset="1" style="stop-color:#2DC2FF"/>
	</linearGradient>
	<path fill="url(#SVGID_1_)" d="M135.561,72.547h-31.26V47.202c0-6.587-5.412-12-12-12H19.3c-6.587,0-12,5.413-12,12v43.932
		c0,6.586,5.413,12,12,12h7.103l8.949,11.999c0.5,0.847,1.517,1.189,2.535,1.189c1.017,0,1.861-0.5,2.534-1.189l8.949-11.999h1.346
		v25.346c0,6.586,5.413,12,12,12h42.915l8.948,12c0.501,0.846,1.519,1.188,2.534,1.188c1.018,0,1.863-0.501,2.535-1.188l8.949-12
		h7.104c6.586,0,11.999-5.414,11.999-12V84.547C147.717,77.945,142.318,72.547,135.561,72.547z M47.696,96.875
		c-1.017,0-1.862,0.501-2.534,1.188l-7.432,9.795l-7.432-9.795c-0.5-0.846-1.518-1.188-2.535-1.188h-8.792
		c-3.208,0-5.742-2.534-5.742-5.742V47.202c0-3.208,2.534-5.742,5.742-5.742h73c3.207,0,5.743,2.535,5.743,5.742v28.552v15.38
		c0,3.207-2.536,5.742-5.743,5.742H53.767L47.696,96.875L47.696,96.875z M141.475,128.479c0,3.207-2.535,5.739-5.742,5.739h-8.793
		c-1.017,0-1.859,0.503-2.532,1.188l-7.433,9.794l-7.434-9.794c-0.5-0.846-1.518-1.188-2.534-1.188H62.731
		c-3.207,0-5.742-2.532-5.742-5.739v-25.348h35.312c2.363,0,4.568-0.673,6.415-1.861h23.655c1.689,0,3.035-1.346,3.035-3.035
		c0-1.688-1.346-3.034-3.035-3.034h-18.586c0.5-1.189,0.672-2.535,0.672-4.053V78.977h31.259c3.208,0,5.742,2.535,5.742,5.742
		v43.761H141.475L141.475,128.479z M125.249,115.635c0,1.688-1.345,3.034-3.034,3.034H76.249c-1.69,0-3.036-1.346-3.036-3.034
		c0-1.69,1.346-3.036,3.036-3.036h45.966C123.889,112.584,125.249,113.944,125.249,115.635z M78.438,81.324H32.645
		c-1.689,0-3.035-1.345-3.035-3.035s1.346-3.035,3.035-3.035h45.792c1.689,0,3.037,1.345,3.037,3.035
		C81.646,79.979,80.129,81.324,78.438,81.324z M29.61,60.719c0-1.688,1.346-3.035,3.035-3.035h46.194
		c1.688,0,3.035,1.346,3.035,3.035c0,1.69-1.347,3.035-3.035,3.035H32.645C30.956,63.754,29.61,62.409,29.61,60.719z"/>
</g>
</svg>
