<?xml version="1.0" encoding="utf-8"?>
<!-- Generator: Adobe Illustrator 16.0.0, SVG Export Plug-In . SVG Version: 6.00 Build 0)  -->
<!DOCTYPE svg PUBLIC "-//W3C//DTD SVG 1.1//EN" "http://www.w3.org/Graphics/SVG/1.1/DTD/svg11.dtd">
<svg version="1.1" id="Capa_1" xmlns="http://www.w3.org/2000/svg" xmlns:xlink="http://www.w3.org/1999/xlink" x="0px" y="0px"
	 width="34px" height="34px" viewBox="0 0 34 34" enable-background="new 0 0 34 34" xml:space="preserve">
<g>
	<g>
		<path fill="#3C4242" d="M27.055,16.718c-0.487,0-0.864,0.376-0.864,0.867v11.817H20.06v-4.826c0-0.453-0.378-0.848-0.834-0.848
			h-4.433c-0.488,0-0.881,0.395-0.881,0.848v4.826H7.797V17.977c0-0.457-0.377-0.836-0.865-0.836c-0.456,0-0.833,0.379-0.833,0.836
			v12.292c0,0.456,0.377,0.834,0.833,0.834h7.861c0.456,0,0.833-0.378,0.833-0.834v-4.825h2.735v4.825
			c0,0.456,0.377,0.834,0.864,0.834h7.829c0.456,0,0.833-0.378,0.833-0.834V17.585C27.888,17.095,27.511,16.718,27.055,16.718z"/>
		<path fill="#3C4242" d="M31.755,17.393l-6.822-6.852V5.869c0-0.486-0.394-0.862-0.88-0.862c-0.457,0-0.834,0.376-0.834,0.862
			v2.959l-5.628-5.663c-0.173-0.174-0.378-0.268-0.581-0.268c-0.236,0-0.441,0.097-0.613,0.268L2.264,17.299
			c-0.34,0.339-0.362,0.883,0,1.193c0.313,0.363,0.854,0.34,1.193,0L17.01,4.974l13.519,13.647c0.142,0.141,0.347,0.221,0.613,0.221
			c0.236,0,0.44-0.08,0.613-0.221C32.07,18.305,32.093,17.735,31.755,17.393z"/>
	</g>
</g>
</svg>
