<?xml version="1.0" encoding="utf-8"?>
<!-- Generator: Adobe Illustrator 16.0.0, SVG Export Plug-In . SVG Version: 6.00 Build 0)  -->
<!DOCTYPE svg PUBLIC "-//W3C//DTD SVG 1.1//EN" "http://www.w3.org/Graphics/SVG/1.1/DTD/svg11.dtd">
<svg version="1.1" id="Capa_1" xmlns="http://www.w3.org/2000/svg" xmlns:xlink="http://www.w3.org/1999/xlink" x="0px" y="0px"
	 width="155px" height="188.869px" viewBox="0 0 155 188.869" enable-background="new 0 0 155 188.869" xml:space="preserve">
<linearGradient id="SVGID_1_" gradientUnits="userSpaceOnUse" x1="18.7568" y1="95.4346" x2="136.2432" y2="95.4346" gradientTransform="matrix(1 0 0 -1 0 189.8691)">
	<stop  offset="0" style="stop-color:#15B7FF"/>
	<stop  offset="0.2478" style="stop-color:#2DC2FF"/>
	<stop  offset="0.7507" style="stop-color:#69C8FF"/>
	<stop  offset="1" style="stop-color:#2DC2FF"/>
</linearGradient>
<path fill="url(#SVGID_1_)" d="M108.501,14.958H28.499c-5.369,0-9.742,4.374-9.742,9.742v139.469c0,5.371,4.373,9.742,9.742,9.742
	h98.002c5.369,0,9.742-4.371,9.742-9.742V45.096L108.501,14.958z M110.809,29.543l12.157,13.218h-12.157V29.543z M128.059,164.159
	c0,0.869-0.699,1.566-1.558,1.566H28.499c-0.855,0-1.556-0.697-1.556-1.566V24.7c0-0.858,0.7-1.557,1.556-1.557h74.108v23.708
	c0,2.257,1.851,4.084,4.104,4.084h21.346v113.224H128.059z M41.387,58.492h69.511c1.688,0,3.062,1.378,3.062,3.065
	c0,1.696-1.377,3.073-3.062,3.073H41.387c-1.696,0-3.075-1.377-3.075-3.073C38.312,59.87,39.69,58.492,41.387,58.492L41.387,58.492z
	 M107.148,101.339c0,2.2-1.799,4-4,4H51.195c-2.2,0-4-1.8-4-4V81.141c0-2.2,1.8-4,4-4h51.954c2.201,0,4,1.8,4,4V101.339
	L107.148,101.339z M42.423,116.726h69.511c1.688,0,3.063,1.377,3.063,3.064c0,1.697-1.377,3.072-3.063,3.072H42.423
	c-1.697,0-3.074-1.375-3.074-3.072C39.349,118.103,40.726,116.726,42.423,116.726L42.423,116.726z M42.423,133.28h69.511
	c1.688,0,3.063,1.377,3.063,3.062c0,1.697-1.377,3.073-3.063,3.073H42.423c-1.697,0-3.074-1.376-3.074-3.073
	C39.349,134.657,40.726,133.28,42.423,133.28L42.423,133.28z"/>
</svg>
