<?xml version="1.0" encoding="utf-8"?>
<!-- Generator: Adobe Illustrator 16.0.0, SVG Export Plug-In . SVG Version: 6.00 Build 0)  -->
<!DOCTYPE svg PUBLIC "-//W3C//DTD SVG 1.1//EN" "http://www.w3.org/Graphics/SVG/1.1/DTD/svg11.dtd">
<svg version="1.1" id="Capa_1" xmlns="http://www.w3.org/2000/svg" xmlns:xlink="http://www.w3.org/1999/xlink" x="0px" y="0px"
	 width="150px" height="182px" viewBox="0 0 150 182" enable-background="new 0 0 150 182" xml:space="preserve">
<g>
	
		<linearGradient id="SVGID_1_" gradientUnits="userSpaceOnUse" x1="70.2832" y1="121.8906" x2="144.5029" y2="121.8906" gradientTransform="matrix(1 0 0 -1 0 183)">
		<stop  offset="0" style="stop-color:#15B7FF"/>
		<stop  offset="0.2478" style="stop-color:#2DC2FF"/>
		<stop  offset="0.7507" style="stop-color:#69C8FF"/>
		<stop  offset="1" style="stop-color:#2DC2FF"/>
	</linearGradient>
	<path fill="url(#SVGID_1_)" d="M136.238,24H90.165c-4.556,0-8.261,3.705-8.261,8.261c0,4.555,3.705,8.26,8.261,8.26h26.136
		L72.703,84.116c-1.562,1.562-2.42,3.634-2.42,5.841s0.858,4.28,2.419,5.841c1.561,1.562,3.634,2.421,5.84,2.421
		c2.207,0,4.281-0.859,5.842-2.42l43.599-43.6v26.138c0,4.555,3.703,8.26,8.261,8.26c4.555,0,8.26-3.705,8.26-8.26V32.26
		C144.499,27.705,140.794,24,136.238,24z"/>
	
		<linearGradient id="SVGID_2_" gradientUnits="userSpaceOnUse" x1="10.5" y1="79.5444" x2="119.5879" y2="79.5444" gradientTransform="matrix(1 0 0 -1 0 183)">
		<stop  offset="0" style="stop-color:#15B7FF"/>
		<stop  offset="0.2478" style="stop-color:#2DC2FF"/>
		<stop  offset="0.7507" style="stop-color:#69C8FF"/>
		<stop  offset="1" style="stop-color:#2DC2FF"/>
	</linearGradient>
	<path fill="url(#SVGID_2_)" d="M105.43,143.841H24.658V63.07h60.746l14.158-14.159H17.579c-3.909,0-7.079,3.17-7.079,7.079v94.932
		c0,3.908,3.17,7.078,7.079,7.078h94.929c3.91,0,7.08-3.17,7.08-7.078V68.936L105.43,83.095V143.841L105.43,143.841z"/>
</g>
</svg>
