<?xml version="1.0" encoding="utf-8"?>
<!-- Generator: Adobe Illustrator 16.0.0, SVG Export Plug-In . SVG Version: 6.00 Build 0)  -->
<!DOCTYPE svg PUBLIC "-//W3C//DTD SVG 1.1//EN" "http://www.w3.org/Graphics/SVG/1.1/DTD/svg11.dtd">
<svg version="1.1" id="Capa_1" xmlns="http://www.w3.org/2000/svg" xmlns:xlink="http://www.w3.org/1999/xlink" x="0px" y="0px"
	 width="20px" height="20px" viewBox="0 0 20 20" enable-background="new 0 0 20 20" xml:space="preserve">
<g>
	<g>
		<path fill="#3C4242" d="M17.84,1.918h-5.752c-0.568,0-1.031,0.461-1.031,1.026c0,0.568,0.463,1.03,1.031,1.03h3.264L9.909,9.405
			c-0.194,0.196-0.302,0.454-0.302,0.729s0.107,0.531,0.302,0.727s0.453,0.303,0.728,0.303c0.277,0,0.536-0.107,0.731-0.303
			l5.441-5.433v3.258c0,0.568,0.463,1.028,1.031,1.028s1.031-0.46,1.031-1.028V2.944C18.871,2.379,18.408,1.918,17.84,1.918z"/>
		<path fill="#3C4242" d="M13.994,16.85H3.91V6.785h7.584l1.768-1.765H3.027c-0.488,0-0.884,0.395-0.884,0.882v11.827
			c0,0.489,0.396,0.884,0.884,0.884h11.85c0.489,0,0.885-0.395,0.885-0.884V7.517l-1.768,1.763V16.85z"/>
	</g>
</g>
</svg>
