<?xml version="1.0" encoding="utf-8"?>
<!-- Generator: Adobe Illustrator 16.0.0, SVG Export Plug-In . SVG Version: 6.00 Build 0)  -->
<!DOCTYPE svg PUBLIC "-//W3C//DTD SVG 1.1//EN" "http://www.w3.org/Graphics/SVG/1.1/DTD/svg11.dtd">
<svg version="1.1" id="Capa_1" xmlns="http://www.w3.org/2000/svg" xmlns:xlink="http://www.w3.org/1999/xlink" x="0px" y="0px"
	 width="266px" height="82px" viewBox="0 0 266 82" enable-background="new 0 0 266 82" xml:space="preserve">
<g>
	<g>
		<g>
			<path fill="#30371E" d="M78.093,54.371h12.023v-4.68H78.093v-6.71h12.365V38.37h-17.47v27.599h17.875v-4.673H78.093V54.371z
				 M98.706,40.28h-5.108v25.688h17.984v-4.371H98.706V40.28z M135.004,51.214c0.69-0.453,1.295-0.961,1.743-1.592
				c0.747-1.036,1.09-2.316,1.09-3.773c0-2.338-0.794-4.253-2.389-5.568c-1.591-1.336-3.759-1.938-6.503-1.938h-8.414v27.626h9.855
				c2.842,0,5.17-0.693,6.934-2.096c1.747-1.41,2.682-3.36,2.642-5.728c0-1.844-0.583-3.466-1.718-4.758
				C137.395,52.44,136.299,51.712,135.004,51.214z M125.57,43.011h2.979c1.566,0,2.591,0.287,3.156,0.744
				c0.269,0.248,0.482,0.496,0.648,0.9c0.123,0.372,0.207,0.85,0.207,1.437c0,1.269-0.373,2.063-1.143,2.645
				c-0.742,0.563-2.049,0.905-3.928,0.905h-1.92V43.011z M133.647,60.429c-0.657,0.506-1.88,0.848-3.66,0.814h-4.417v-6.902h3.799
				c1.992,0,3.376,0.339,4.141,0.9c0.755,0.566,1.145,1.33,1.145,2.635C134.654,59.146,134.316,59.915,133.647,60.429z
				 M180.151,50.911L180.151,50.911l-0.548-0.287c-1.465-0.851-2.529-1.621-3.215-2.281c-0.348-0.346-0.58-0.633-0.714-0.896
				c-0.169-0.258-0.211-0.453-0.211-0.612c0.019-0.636,0.223-1.066,0.815-1.491c0.582-0.428,1.354-0.662,2.391-0.662
				c0.874,0,1.725,0.154,2.604,0.502c0.876,0.373,1.852,0.928,2.918,1.754l1.029,0.773v-5.499l-0.311-0.187
				c-1.002-0.556-2.022-0.98-3.036-1.271c-1.007-0.258-2.01-0.424-3.055-0.424c-2.29,0-4.271,0.64-5.796,1.914
				c-1.518,1.268-2.32,2.996-2.32,4.98c0,1.443,0.406,2.712,1.217,3.768c0.467,0.566,1.13,1.15,2.033,1.812
				c0.921,0.694,2.111,1.458,3.549,2.347c0.908,0.52,1.633,1.005,2.197,1.396c0.568,0.403,0.965,0.742,1.149,0.959
				c0.396,0.481,0.548,0.953,0.584,1.59c-0.036,0.773-0.271,1.255-0.854,1.699c-0.558,0.422-1.403,0.689-2.573,0.689
				c-1.087,0-2.095-0.24-3.056-0.746c-0.948-0.475-1.989-1.334-3.101-2.486l-1.117-1.198v6.367l0.276,0.187
				c1.049,0.82,2.159,1.432,3.336,1.807c1.194,0.404,2.491,0.59,3.895,0.59c2.304,0,4.276-0.639,5.794-1.91
				c1.535-1.279,2.324-2.98,2.324-4.947c0-1.666-0.388-3.132-1.236-4.328C184.27,53.598,182.631,52.354,180.151,50.911z
				 M212.279,61.719c1.911-2.274,2.869-4.981,2.869-8.037c0-1.86-0.355-3.619-1.02-5.239c-0.682-1.588-1.696-3.043-3.025-4.344
				c-1.264-1.25-2.759-2.234-4.428-2.893c-1.701-0.67-3.453-1.008-5.303-1.008c-1.832,0-3.588,0.338-5.252,1.008
				c-1.658,0.658-3.144,1.617-4.478,2.893c-1.269,1.244-2.282,2.676-2.956,4.3c-0.727,1.644-1.079,3.313-1.079,5.048
				c0,3.15,0.966,5.957,2.849,8.34c1.861,2.356,4.342,3.924,7.375,4.682c2.265,1.604,4.385,2.82,6.399,3.664
				c2.078,0.873,3.964,1.305,5.681,1.305c0.209,0,0.365,0,0.512,0c0.156,0,0.287-0.018,0.418-0.039l0.197-0.037l3.783-3.316
				l-0.289-0.8l-0.211-0.506l-0.502,0.105c-0.486,0.112-0.902,0.168-1.309,0.203c-0.371,0.069-0.709,0.069-1.037,0.069
				c-0.977,0-2.01-0.143-3.096-0.404c-0.666-0.188-1.441-0.449-2.25-0.77C208.615,65.021,210.711,63.637,212.279,61.719z
				 M209.465,56.413c-0.457,1.066-1.059,2.02-1.889,2.818l-0.027,0.03c-0.849,0.866-1.806,1.503-2.831,1.954
				c-1.073,0.434-2.182,0.664-3.345,0.664c-1.172,0-2.27-0.23-3.352-0.688c-1.101-0.481-2.016-1.107-2.852-1.93v-0.03
				c-0.812-0.799-1.447-1.752-1.873-2.818c-0.456-1.059-0.664-2.172-0.664-3.348c0-1.188,0.208-2.305,0.664-3.392
				c0.426-1.063,1.061-1.985,1.86-2.802c0.87-0.846,1.824-1.473,2.894-1.924c1.09-0.454,2.176-0.658,3.322-0.658
				c1.163,0,2.271,0.204,3.345,0.658c1.052,0.42,1.982,1.062,2.815,1.906c0.873,0.875,1.502,1.832,1.932,2.894
				c0.447,1.046,0.656,2.13,0.656,3.317C210.121,54.241,209.912,55.354,209.465,56.413z M234.808,56.069
				c-0.024,1.641-0.548,2.863-1.724,3.846c-1.13,0.956-2.678,1.49-4.697,1.49c-1.188,0-2.226-0.214-3.102-0.582
				c-0.914-0.371-1.676-0.955-2.338-1.729c-0.337-0.398-0.585-0.874-0.712-1.437c-0.158-0.55-0.246-1.614-0.246-3.155V40.296h-4.747
				v14.347c0,1.954,0.128,3.419,0.426,4.452c0.301,1.021,0.754,1.941,1.457,2.757l0,0l0,0c1.088,1.36,2.417,2.367,4.005,3.074
				c1.569,0.702,3.341,1.043,5.257,1.043c3.234,0,5.947-0.892,8.027-2.702c2.092-1.783,3.154-4.223,3.115-7.097V40.296h-4.722
				V56.069z M247.677,61.54v-6.299h12.109v-4.4h-12.109v-6.049h12.492v-4.381h-17.604v25.496h18.004V61.54H247.677z M164.992,43.901
				c-1.295-1.239-2.781-2.17-4.451-2.836c-1.701-0.629-3.48-0.973-5.343-0.973c-1.824,0-3.57,0.344-5.241,0.973
				c-1.686,0.641-3.197,1.597-4.494,2.836c-1.305,1.198-2.309,2.609-3.021,4.208c-0.697,1.582-1.068,3.257-1.068,4.956
				c0,1.784,0.342,3.506,1.035,5.1c0.688,1.59,1.709,3.026,3.055,4.298c1.274,1.201,2.757,2.159,4.463,2.812
				c1.66,0.632,3.448,0.987,5.272,0.987c1.862,0,3.642-0.32,5.315-0.962c1.671-0.663,3.157-1.583,4.515-2.838
				c1.305-1.22,2.281-2.625,2.997-4.188c0.688-1.597,1.035-3.267,1.035-4.997c0-1.831-0.348-3.53-1.008-5.093
				C167.353,46.591,166.333,45.155,164.992,43.901z M163.352,56.434c-0.451,1.046-1.055,1.968-1.889,2.771
				c-0.842,0.826-1.805,1.463-2.834,1.857c-1.093,0.422-2.203,0.629-3.431,0.629c-1.187,0-2.309-0.207-3.4-0.629
				c-1.077-0.451-2.013-1.062-2.834-1.857l0,0c-0.823-0.803-1.464-1.725-1.884-2.771c-0.449-1.028-0.666-2.093-0.666-3.261
				c0-1.14,0.217-2.232,0.666-3.292c0.453-1.034,1.061-1.931,1.884-2.729c0.871-0.81,1.835-1.431,2.907-1.886
				c1.07-0.432,2.186-0.642,3.327-0.642c1.2,0,2.312,0.21,3.375,0.642c1.064,0.42,2.012,1.057,2.845,1.886
				c0.879,0.845,1.514,1.767,1.963,2.813c0.414,1.001,0.639,2.067,0.639,3.207C164.02,54.341,163.795,55.405,163.352,56.434z
				 M80.26,32.282c2.285,0,4.096-0.716,5.432-2.148c1.314-1.432,2.01-3.371,2.01-5.787V13.803h-1.523v10.62
				c0,1.944-0.529,3.48-1.582,4.623c-1.09,1.143-2.523,1.725-4.336,1.725c-1.796,0-3.238-0.582-4.301-1.725
				c-1.085-1.143-1.621-2.679-1.621-4.623v-10.62h-1.449v10.544c0,2.439,0.652,4.385,1.985,5.787
				C76.209,31.566,78.009,32.282,80.26,32.282z M94.682,16.542l11.674,14.095h1.175V14.703h-1.257v13.89L94.73,14.703h-1.324v15.934
				h1.275V16.542z M113.314,30.873h1.354V14.924h-1.354V30.873z M126.14,31.142l6.7-16.218h-1.371l-5.438,13.383l-5.383-13.383
				h-1.416l6.721,16.218H126.14z M145.36,29.784h-7.464v-6.478h7.037v-1.023h-7.037V15.96h7.272v-1.036h-8.55v15.949h8.741V29.784z
				 M152.234,23.213h1.281c0.917,0,1.588,0.071,2.031,0.179c0.455,0.097,0.82,0.322,1.117,0.606
				c0.207,0.216,0.477,0.562,0.846,1.072c0.341,0.476,0.798,1.11,1.272,1.886l2.524,3.917h1.429l-4.345-6.702
				c-0.191-0.302-0.404-0.568-0.607-0.779c-0.247-0.217-0.508-0.395-0.809-0.581c1.012-0.323,1.77-0.805,2.26-1.464
				c0.51-0.641,0.75-1.465,0.75-2.422c0-1.295-0.432-2.276-1.334-2.965c-0.897-0.696-2.174-1.036-3.84-1.036h-3.838v15.949h1.262
				V23.213z M152.234,16.014h2.646c1.193,0,2.094,0.237,2.764,0.766c0.635,0.506,0.954,1.229,0.954,2.146
				c0,0.669-0.132,1.25-0.421,1.711c-0.299,0.475-0.725,0.813-1.307,1.08c-0.311,0.137-0.691,0.24-1.166,0.324
				c-0.484,0.047-1.309,0.072-2.49,0.072h-0.98V16.014z M174.835,26.733c0-0.529-0.097-1.031-0.241-1.512
				c-0.199-0.475-0.453-0.904-0.777-1.275c-0.508-0.555-1.489-1.136-2.928-1.717c-0.156-0.086-0.258-0.117-0.34-0.163
				c-1.301-0.565-2.146-1.038-2.523-1.487c-0.398-0.42-0.587-1.012-0.587-1.695c0-0.862,0.286-1.572,0.901-2.152
				c0.616-0.555,1.38-0.855,2.332-0.855c0.587,0,1.178,0.113,1.752,0.318c0.626,0.208,1.227,0.566,1.895,1.013v-1.433
				c-0.613-0.343-1.191-0.611-1.785-0.801c-0.576-0.149-1.192-0.271-1.801-0.271c-1.353,0-2.445,0.407-3.294,1.201
				c-0.859,0.801-1.272,1.809-1.272,3.021c0,1.007,0.268,1.84,0.832,2.48c0.553,0.635,1.58,1.275,3.104,1.901
				c1.459,0.616,2.386,1.142,2.787,1.599c0.42,0.479,0.602,1.066,0.602,1.777c0,0.986-0.281,1.752-0.898,2.332
				c-0.585,0.563-1.412,0.852-2.443,0.852c-0.613,0-1.275-0.156-1.918-0.43c-0.68-0.283-1.376-0.705-2.115-1.295v1.533
				c0.688,0.484,1.348,0.834,2.018,1.068c0.686,0.231,1.354,0.346,2.044,0.346c1.359,0,2.468-0.393,3.347-1.223
				C174.395,29.046,174.835,28.011,174.835,26.733z M181.273,14.924h-1.348v15.949h1.348V14.924z M195.68,30.509
				c0.877-0.243,1.627-0.613,2.317-1.125c0.984-0.738,1.746-1.664,2.306-2.802c0.558-1.147,0.82-2.396,0.82-3.7
				c0-1.291-0.263-2.521-0.82-3.684c-0.56-1.146-1.321-2.078-2.306-2.809c-0.69-0.514-1.44-0.884-2.292-1.126
				c-0.847-0.197-1.846-0.34-3.072-0.34h-5.469v15.949h5.469C193.829,30.873,194.832,30.743,195.68,30.509z M188.518,29.74V16.063
				h3.801c1.029,0,1.931,0.113,2.668,0.266c0.752,0.187,1.408,0.45,1.935,0.82c0.89,0.582,1.58,1.42,2.089,2.418
				c0.494,1.012,0.733,2.127,0.733,3.348c0,1.191-0.239,2.307-0.733,3.344c-0.509,1.012-1.199,1.809-2.089,2.419
				c-0.526,0.368-1.183,0.637-1.935,0.813c-0.737,0.172-1.639,0.249-2.668,0.249H188.518z M210.074,15.536l-6.557,15.337h1.264
				l2.239-5.312h6.604l2.238,5.312h1.273l-6.557-15.337H210.074z M207.443,24.53l2.894-6.9l2.872,6.9H207.443z M230.244,30.509
				c0.893-0.243,1.648-0.613,2.312-1.125c0.992-0.738,1.752-1.664,2.309-2.802c0.555-1.147,0.824-2.396,0.824-3.7
				c0-1.291-0.27-2.521-0.824-3.684c-0.557-1.146-1.316-2.078-2.309-2.809c-0.664-0.514-1.42-0.884-2.285-1.126
				c-0.85-0.197-1.855-0.34-3.072-0.34h-5.443v15.949h5.443C228.387,30.873,229.393,30.743,230.244,30.509z M223.078,29.74V16.063
				h3.804c1.021,0,1.932,0.113,2.669,0.266c0.744,0.187,1.418,0.45,1.938,0.82c0.885,0.582,1.576,1.42,2.068,2.418
				c0.512,1.012,0.752,2.127,0.752,3.348c0,1.191-0.24,2.307-0.752,3.344c-0.492,1.012-1.184,1.809-2.068,2.419
				c-0.52,0.368-1.193,0.637-1.938,0.813c-0.737,0.172-1.647,0.249-2.669,0.249H223.078z"/>
			<path fill="#DC7400" d="M49.172,8.182c0,0.577,0.519,1.04,1.111,1.04c0.615,0,1.129-0.463,1.129-1.04
				c0-0.558-0.514-1.037-1.129-1.037C49.69,7.145,49.172,7.624,49.172,8.182z M57.965,13.648c0-0.555,0.473-1.027,1.09-1.027
				c0.619,0,1.116,0.473,1.116,1.027c0,0.592-0.497,1.055-1.116,1.055c-0.421,0-0.799-0.232-0.988-0.555
				c0.48,1.301,0.828,2.692,0.936,4.043c0.053,0.442,0.072,0.871,0.072,1.274c0.131-0.457,0.569-0.775,1.097-0.775
				c0.61,0,1.084,0.484,1.084,1.043c0,0.576-0.474,1.031-1.084,1.031c-0.497,0-0.966-0.316-1.097-0.741
				c0,2.382-0.732,3.636-1.162,4.163l-0.103,0.16c0.155-0.111,0.343-0.16,0.558-0.16c0.605,0,1.073,0.479,1.073,1.061
				c0,0.559-0.468,1.037-1.073,1.037c-0.611,0-1.127-0.479-1.127-1.037c0-0.125,0.026-0.226,0.055-0.342
				c-0.843,0.929-1.752,1.744-2.744,2.658c0.146-0.085,0.337-0.11,0.52-0.11c0.621,0,1.112,0.45,1.112,1.038
				c0,0.555-0.491,1.03-1.112,1.03c-0.609,0-1.083-0.476-1.083-1.03c0-0.214,0.042-0.406,0.153-0.563
				c-0.904,0.804-1.854,1.621-2.926,2.638c-0.439,0.498-0.316,0.944,0.455,1.57c0.353,0.305,0.686,0.619,1.044,0.956
				c-0.084-0.137-0.112-0.298-0.112-0.494c0-0.546,0.48-1.031,1.096-1.031c0.598,0,1.102,0.485,1.102,1.031
				c0,0.591-0.504,1.069-1.102,1.069c-0.189,0-0.388-0.057-0.535-0.145c0.979,0.965,1.938,1.941,2.783,2.83
				c-0.076-0.137-0.129-0.295-0.129-0.479c0-0.561,0.506-1.045,1.117-1.045c0.602,0,1.089,0.484,1.089,1.045
				c0,0.573-0.487,1.056-1.089,1.056c-0.236,0-0.451-0.079-0.611-0.182c0.451,0.472,0.873,0.921,1.191,1.272
				c1.033,1.086,1.089,1.936,0.082,3.128c-0.301,0.347-0.689,0.741-1.168,1.196c0.135-0.047,0.295-0.102,0.443-0.102
				c0.625,0,1.121,0.471,1.121,1.055c0,0.562-0.496,1.038-1.121,1.038c-0.598,0-1.088-0.476-1.088-1.038
				c0-0.154,0.033-0.287,0.086-0.424c-0.899,0.881-1.989,1.862-3.031,2.848c0.164-0.082,0.357-0.142,0.543-0.142
				c0.606,0,1.1,0.485,1.1,1.04c0,0.581-0.493,1.044-1.1,1.044c-0.621,0-1.094-0.463-1.094-1.044c0-0.188,0.055-0.369,0.15-0.528
				c-1,0.923-1.936,1.8-2.669,2.494c-0.753,0.765-0.356,0.896,0.254,1.729l0.876,1.031c-0.041-0.133-0.074-0.265-0.074-0.436
				c0-0.576,0.479-1.03,1.089-1.03c0.633,0,1.124,0.454,1.124,1.03c0,0.596-0.491,1.041-1.124,1.041
				c-0.243,0-0.454-0.053-0.636-0.186c0.791,0.924,1.725,1.971,2.603,2.938c-0.079-0.128-0.106-0.288-0.106-0.444
				c0-0.579,0.48-1.033,1.092-1.033c0.612,0,1.111,0.454,1.111,1.033c0,0.589-0.499,1.041-1.111,1.041
				c-0.24,0-0.484-0.083-0.665-0.212l0.599,0.69c1.193,1.348,1.193,2.061,0.121,3.123l-0.779,0.615
				c0.113-0.025,0.24-0.045,0.377-0.045c0.602,0,1.109,0.471,1.109,1.039c0,0.572-0.508,1.027-1.109,1.027
				c-0.62,0-1.111-0.455-1.111-1.027c0-0.163,0.047-0.357,0.127-0.482c-1.246,1.006-2.384,1.957-3.511,2.865
				c0.108-0.033,0.239-0.054,0.38-0.054c0.602,0,1.11,0.446,1.11,1.031c0,0.577-0.509,1.036-1.11,1.036
				c-0.605,0-1.112-0.459-1.112-1.036c0-0.183,0.042-0.343,0.122-0.505c-0.76,0.633-1.557,1.254-2.365,1.855
				c-0.844,0.684-1.029,0.957-0.527,1.391c1.141,0.938,2.318,1.904,3.249,2.863c-0.078-0.16-0.134-0.347-0.134-0.531
				c0-0.597,0.467-1.061,1.085-1.061c0.613,0,1.116,0.464,1.116,1.061c0,0.559-0.503,1.033-1.116,1.033
				c-0.238,0-0.458-0.083-0.618-0.184c1.142,1.189,1.921,2.348,1.838,3.318c-0.322,1.964-2.334,1.751-3.559,1.012
				c-2.418-1.623-4.41-4.146-6.638-7.079c-1.111-1.842-1.831-2.513,0.302-3.972c1.479-1.195,3.359-2.623,6.701-5.062
				c0.962-0.697,0.962-0.982,0.109-1.999c-1.77-1.966-3.782-4.166-4.96-5.729c-0.667-0.826-0.61-1.698,0.075-2.469
				c1.945-2.311,5.441-5.311,7.196-6.93c0.746-0.688,0.901-1.092,0.323-1.725c-3.426-3.287-4.807-5.068-6.664-7.025
				c-0.986-1.305-0.755-1.947,0.301-3.035c1.139-1.173,1.258-1.227,4-3.798c4.035-3.688,4.57-3.802,2.973-6.733
				c-2.144-4.099-9.799-11.326-7.654-12.993c2.348-1.912,5.397-1.177,8.864,1.6c0.678,0.475,1.342,1.134,2.002,1.963
				c-0.047-0.103-0.078-0.248-0.078-0.38c0-0.577,0.493-1.052,1.089-1.052c0.633,0,1.115,0.475,1.115,1.052
				c0,0.558-0.482,1.032-1.115,1.032c-0.273,0-0.506-0.096-0.727-0.254c0.906,1.215,1.764,2.697,2.369,4.325
				C57.965,13.776,57.965,13.729,57.965,13.648z M33.391,72.37c3.838-12.74,5.457-26.79,5.457-40.004
				c0-6.302-0.627-12.609-1.98-18.773h5.831c1.068,6.477,1.517,13.057,1.517,19.623c0,15.227-2.076,29.996-7.963,44.254
				l-0.908,0.021h-1.953h-2.03l-0.89-0.021c-5.871-14.258-7.944-29.027-7.944-44.254c0-6.566,0.421-13.146,1.511-19.623h5.609
				c-1.359,6.164-1.779,12.472-1.779,18.773c0,13.214,1.636,27.264,5.461,40.004H33.391z M7.737,18.191
				c0.114-1.351,0.431-2.742,0.904-4.043c-0.185,0.322-0.554,0.555-0.983,0.555c-0.603,0-1.113-0.463-1.113-1.055
				c0-0.555,0.511-1.027,1.113-1.027c0.615,0,1.112,0.473,1.112,1.027c0,0.081,0,0.128-0.019,0.214
				c0.641-1.628,1.454-3.11,2.356-4.325c-0.181,0.134-0.426,0.238-0.688,0.238c-0.614,0-1.119-0.485-1.119-1.064
				c0-0.564,0.505-1.034,1.119-1.034s1.113,0.47,1.113,1.034c0,0.13-0.026,0.265-0.079,0.397c0.643-0.82,1.305-1.484,1.936-1.933
				c3.487-2.776,6.538-3.512,8.866-1.6c2.147,1.667-5.472,8.895-7.638,12.993c-1.594,2.932-1.066,3.045,2.976,6.733
				c2.753,2.571,2.862,2.625,3.999,3.798c1.055,1.088,1.276,1.73,0.324,3.035c-1.882,1.957-3.266,3.738-6.693,7.025
				c-0.582,0.633-0.421,1.037,0.324,1.725c1.748,1.619,5.248,4.619,7.221,6.93c0.695,0.771,0.744,1.643,0.049,2.469
				c-1.17,1.563-3.188,3.764-4.962,5.729c-0.847,1.017-0.821,1.302,0.132,1.999c3.319,2.439,5.204,3.867,6.688,5.062
				c2.122,1.459,1.425,2.13,0.29,3.972c-2.225,2.933-4.193,5.456-6.635,7.079c-1.219,0.739-3.234,0.952-3.558-1.012
				c-0.077-0.971,0.698-2.129,1.865-3.318c-0.188,0.101-0.405,0.184-0.646,0.184c-0.612,0-1.112-0.475-1.112-1.033
				c0-0.597,0.5-1.061,1.112-1.061c0.619,0,1.119,0.464,1.119,1.061c0,0.185-0.057,0.371-0.164,0.531
				c0.963-0.959,2.088-1.925,3.238-2.863c0.535-0.434,0.324-0.707-0.501-1.391c-0.845-0.633-1.679-1.269-2.493-1.9
				c0.16,0.152,0.265,0.395,0.265,0.646c0,0.564-0.509,1.052-1.12,1.052c-0.607,0-1.08-0.487-1.08-1.052
				c0-0.58,0.473-1.055,1.08-1.055c0.22,0,0.43,0.074,0.593,0.16c-1.226-0.986-2.448-2.014-3.8-3.102
				c0.111,0.154,0.16,0.35,0.16,0.539c0,0.572-0.513,1.027-1.115,1.027c-0.609,0-1.09-0.455-1.09-1.027
				c0-0.568,0.48-1.039,1.09-1.039c0.158,0,0.285,0.02,0.453,0.066l-0.822-0.637c-1.092-1.062-1.092-1.775,0.104-3.123l0.582-0.66
				c-0.158,0.099-0.342,0.15-0.559,0.15c-0.635,0-1.115-0.469-1.115-1.029c0-0.589,0.48-1.068,1.115-1.068
				c0.588,0,1.092,0.479,1.092,1.068c0,0.13-0.025,0.262-0.076,0.368c0.906-0.987,1.793-2.048,2.6-2.95
				c-0.213,0.127-0.451,0.24-0.725,0.24c-0.604,0-1.104-0.482-1.104-1.037c0-0.578,0.5-1.061,1.104-1.061
				c0.615,0,1.123,0.482,1.123,1.061c0,0.161-0.065,0.322-0.133,0.484l0.872-1.031c0.64-0.834,1.007-0.965,0.263-1.729
				c-0.715-0.694-1.67-1.571-2.656-2.494c0.088,0.159,0.158,0.341,0.158,0.528c0,0.581-0.498,1.044-1.105,1.044
				c-0.612,0-1.117-0.463-1.117-1.044c0-0.555,0.505-1.04,1.117-1.04c0.207,0,0.395,0.06,0.555,0.142
				c-1.07-0.985-2.169-1.994-3.082-2.873c0.082,0.133,0.109,0.295,0.109,0.477c0,0.576-0.477,1.046-1.092,1.046
				c-0.598,0-1.111-0.47-1.111-1.046c0-0.582,0.514-1.027,1.111-1.027c0.189,0,0.37,0.01,0.529,0.103
				c-0.502-0.481-0.93-0.905-1.217-1.252c-1.037-1.192-0.98-2.042,0.051-3.128c0.322-0.352,0.717-0.773,1.166-1.242
				c-0.159,0.098-0.359,0.18-0.604,0.18c-0.613,0-1.09-0.477-1.09-1.029c0-0.596,0.477-1.076,1.09-1.076
				c0.604,0,1.111,0.48,1.111,1.076c0,0.158-0.055,0.309-0.131,0.471c0.854-0.9,1.834-1.936,2.842-2.923
				c-0.161,0.105-0.342,0.134-0.526,0.134c-0.623,0-1.124-0.458-1.124-1.033c0-0.594,0.501-1.033,1.124-1.033
				c0.601,0,1.114,0.439,1.114,1.033c0,0.178-0.057,0.344-0.143,0.469c0.352-0.312,0.668-0.63,1.018-0.91
				c0.79-0.626,0.9-1.072,0.449-1.57c-1.045-0.987-1.998-1.809-2.867-2.586c0.131,0.162,0.184,0.354,0.184,0.562
				c0,0.58-0.51,1.036-1.081,1.036c-0.646,0-1.138-0.456-1.138-1.036c0-0.57,0.492-1.043,1.138-1.043
				c0.179,0,0.366,0.064,0.52,0.141c-1.081-0.99-2.066-1.859-2.97-2.893c0.072,0.158,0.133,0.323,0.133,0.5
				c0,0.559-0.502,1.037-1.111,1.037c-0.617,0-1.09-0.479-1.09-1.037c0-0.582,0.473-1.061,1.09-1.061
				c0.261,0,0.501,0.11,0.709,0.236l-0.208-0.236c-0.429-0.527-1.165-1.832-1.165-4.329c-0.084,0.526-0.533,0.907-1.122,0.907
				c-0.603,0-1.085-0.455-1.085-1.031c0-0.559,0.482-1.043,1.085-1.043c0.589,0,1.068,0.402,1.122,0.93
				C7.639,19.175,7.658,18.69,7.737,18.191z M15.047,8.182c0,0.577,0.502,1.04,1.102,1.04c0.619,0,1.125-0.463,1.125-1.04
				c0-0.558-0.506-1.037-1.125-1.037C15.549,7.145,15.047,7.624,15.047,8.182z"/>
		</g>
	</g>
</g>
</svg>
