<?xml version="1.0" encoding="utf-8"?>
<!-- Generator: Adobe Illustrator 16.0.0, SVG Export Plug-In . SVG Version: 6.00 Build 0)  -->
<!DOCTYPE svg PUBLIC "-//W3C//DTD SVG 1.1//EN" "http://www.w3.org/Graphics/SVG/1.1/DTD/svg11.dtd">
<svg version="1.1" id="Capa_1" xmlns="http://www.w3.org/2000/svg" xmlns:xlink="http://www.w3.org/1999/xlink" x="0px" y="0px"
	 width="12px" height="12px" viewBox="0 0 12 12" enable-background="new 0 0 12 12" xml:space="preserve">
<g>
	<path fill="#3C4242" d="M10.072,3.261C9.997,3.153,9.918,3.048,9.834,2.948C8.92,1.851,7.543,1.151,6.006,1.151
		c-0.003,0-0.005,0-0.007,0c-0.002,0-0.004,0-0.005,0c-0.006,0-0.011,0-0.018,0c-1.524,0.01-2.889,0.707-3.798,1.797
		c-0.084,0.1-0.163,0.205-0.239,0.312C1.365,4.073,1.025,5.062,1.025,6.132c0,1.069,0.34,2.061,0.916,2.874
		c0.076,0.106,0.155,0.211,0.239,0.311c0.909,1.091,2.273,1.788,3.798,1.797c0.006,0,0.012,0.002,0.018,0.002
		c0.001,0,0.002,0,0.004,0c0.003,0,0.005,0,0.008,0c1.537,0,2.912-0.701,3.828-1.799c0.084-0.1,0.163-0.204,0.238-0.311
		c0.576-0.813,0.916-1.805,0.916-2.874C10.988,5.062,10.648,4.073,10.072,3.261z M4.55,1.799C4.092,2.24,3.711,2.886,3.45,3.661
		c-0.352-0.131-0.668-0.29-0.94-0.468C3.044,2.558,3.747,2.069,4.55,1.799z M2.269,3.506C2.58,3.712,2.938,3.894,3.333,4.042
		C3.162,4.667,3.064,5.359,3.061,6.09H1.434C1.443,5.129,1.753,4.239,2.269,3.506z M1.45,6.499h1.619
		c0.026,0.613,0.12,1.194,0.264,1.724C2.937,8.371,2.58,8.553,2.269,8.761C1.812,8.11,1.516,7.338,1.45,6.499z M2.511,9.07
		C2.783,8.894,3.099,8.735,3.45,8.604c0.262,0.775,0.643,1.422,1.101,1.863C3.747,10.197,3.045,9.705,2.511,9.07z M5.802,10.691
		C4.963,10.576,4.24,9.717,3.829,8.478C4.421,8.299,5.09,8.192,5.802,8.174V10.691z M5.802,7.766C5.052,7.784,4.345,7.9,3.714,8.094
		C3.585,7.604,3.503,7.066,3.478,6.5h2.325V7.766z M5.802,6.09H3.47c0.003-0.686,0.093-1.335,0.247-1.917
		C4.345,4.365,5.052,4.482,5.802,4.5V6.09L5.802,6.09z M5.802,4.09C5.091,4.073,4.421,3.966,3.83,3.79
		c0.411-1.239,1.133-2.1,1.972-2.216V4.09z M10.578,6.09h-1.65c-0.003-0.728-0.1-1.418-0.27-2.04C9.062,3.9,9.43,3.716,9.744,3.506
		C10.26,4.239,10.57,5.129,10.578,6.09z M9.503,3.194C9.225,3.376,8.901,3.536,8.542,3.668C8.277,2.883,7.891,2.23,7.426,1.786
		C8.244,2.055,8.961,2.548,9.503,3.194z M6.211,1.578c0.83,0.128,1.545,0.987,1.95,2.217C7.575,3.969,6.913,4.074,6.211,4.09V1.578z
		 M6.211,4.5c0.741-0.018,1.439-0.131,2.063-0.32C8.428,4.761,8.516,5.407,8.52,6.091H6.211V4.5z M6.211,6.499h2.301
		C8.486,7.064,8.404,7.598,8.275,8.086c-0.623-0.188-1.323-0.303-2.064-0.32L6.211,6.499L6.211,6.499z M6.211,10.688V8.174
		c0.702,0.019,1.365,0.123,1.951,0.297C7.756,9.701,7.04,10.561,6.211,10.688z M7.426,10.479c0.465-0.442,0.852-1.096,1.117-1.881
		C8.901,8.73,9.225,8.89,9.502,9.072C8.959,9.717,8.244,10.211,7.426,10.479z M9.744,8.761C9.43,8.549,9.062,8.365,8.658,8.215
		C8.801,7.687,8.894,7.108,8.92,6.5h1.643C10.496,7.338,10.202,8.11,9.744,8.761z"/>
</g>
</svg>
