<?xml version="1.0" encoding="utf-8"?>
<!-- Generator: Adobe Illustrator 16.0.0, SVG Export Plug-In . SVG Version: 6.00 Build 0)  -->
<!DOCTYPE svg PUBLIC "-//W3C//DTD SVG 1.1//EN" "http://www.w3.org/Graphics/SVG/1.1/DTD/svg11.dtd">
<svg version="1.1" id="Capa_1" xmlns="http://www.w3.org/2000/svg" xmlns:xlink="http://www.w3.org/1999/xlink" x="0px" y="0px"
	 width="31px" height="31px" viewBox="0 0 31 31" enable-background="new 0 0 31 31" xml:space="preserve">
<g>
	<circle fill="#00A89B" cx="15.5" cy="15.396" r="15"/>
	<g>
		<g>
			<path fill="#FFFFFF" d="M23.224,7.717H11.287c-0.191,0-0.347,0.156-0.347,0.348v6.893H7.776c-0.191,0-0.347,0.155-0.347,0.347
				v5.877c0,1.158,0.943,2.103,2.103,2.103c0.03,0,11.936,0,11.936,0c1.159,0,2.104-0.944,2.104-2.103V8.064
				C23.571,7.873,23.415,7.717,23.224,7.717z M8.123,21.181v-5.531h2.817v5.531c0,0.776-0.632,1.409-1.409,1.409
				S8.123,21.957,8.123,21.181z M22.877,21.181c0,0.776-0.632,1.409-1.409,1.409H11.091c0.337-0.373,0.543-0.868,0.543-1.409V8.41
				h11.243V21.181z"/>
			<path fill="#FFFFFF" d="M16.769,11.722h4.444c0.19,0,0.347-0.154,0.347-0.346s-0.156-0.348-0.347-0.348h-4.444
				c-0.191,0-0.347,0.156-0.347,0.348S16.577,11.722,16.769,11.722z"/>
			<path fill="#FFFFFF" d="M16.769,15.53h4.444c0.19,0,0.347-0.154,0.347-0.346s-0.156-0.348-0.347-0.348h-4.444
				c-0.191,0-0.347,0.156-0.347,0.348S16.577,15.53,16.769,15.53z"/>
			<path fill="#FFFFFF" d="M16.769,19.34h4.444c0.19,0,0.347-0.155,0.347-0.347s-0.156-0.347-0.347-0.347h-4.444
				c-0.191,0-0.347,0.155-0.347,0.347S16.577,19.34,16.769,19.34z"/>
			<path fill="#FFFFFF" d="M13.569,12.112c0.065,0.069,0.156,0.109,0.252,0.109c0.001,0,0.002,0,0.003,0
				c0.097-0.002,0.188-0.042,0.253-0.113l1.904-2.086c0.129-0.142,0.12-0.361-0.022-0.49c-0.141-0.129-0.36-0.119-0.489,0.022
				l-1.652,1.81l-0.515-0.544c-0.132-0.14-0.352-0.146-0.49-0.015c-0.14,0.132-0.146,0.352-0.015,0.49L13.569,12.112z"/>
			<path fill="#FFFFFF" d="M15.47,13.528l-1.652,1.811l-0.515-0.545c-0.132-0.14-0.352-0.145-0.49-0.014
				c-0.14,0.131-0.146,0.352-0.015,0.49l0.771,0.815c0.065,0.07,0.156,0.109,0.252,0.109c0.001,0,0.002,0,0.003,0
				c0.097-0.001,0.188-0.042,0.253-0.112l1.904-2.087c0.129-0.141,0.12-0.36-0.022-0.49C15.818,13.378,15.599,13.388,15.47,13.528z"
				/>
			<path fill="#FFFFFF" d="M15.47,17.503l-1.652,1.811l-0.515-0.545c-0.132-0.139-0.352-0.146-0.49-0.014
				c-0.14,0.131-0.146,0.351-0.015,0.49l0.771,0.816c0.065,0.068,0.156,0.108,0.252,0.108c0.001,0,0.002,0,0.003,0
				c0.097-0.001,0.188-0.042,0.253-0.113l1.904-2.086c0.129-0.141,0.12-0.36-0.022-0.489C15.818,17.352,15.599,17.362,15.47,17.503z
				"/>
		</g>
	</g>
</g>
</svg>
