<?xml version="1.0" encoding="utf-8"?>
<!-- Generator: Adobe Illustrator 16.0.0, SVG Export Plug-In . SVG Version: 6.00 Build 0)  -->
<!DOCTYPE svg PUBLIC "-//W3C//DTD SVG 1.1//EN" "http://www.w3.org/Graphics/SVG/1.1/DTD/svg11.dtd">
<svg version="1.1" id="Capa_1" xmlns="http://www.w3.org/2000/svg" xmlns:xlink="http://www.w3.org/1999/xlink" x="0px" y="0px"
	 width="31px" height="31px" viewBox="0 0 31 31" enable-background="new 0 0 31 31" xml:space="preserve">
<circle fill="#A88C00" cx="15.5" cy="15.396" r="15"/>
<g>
	<path fill="#FFFFFF" d="M14.284,11.053c-0.181-0.451-0.618-0.747-1.104-0.747s-0.921,0.295-1.104,0.747l-3.92,9.803
		c-0.243,0.61,0.055,1.301,0.663,1.545c0.608,0.243,1.3-0.05,1.543-0.662l0.488-1.213h4.663l0.486,1.213
		c0.188,0.464,0.634,0.748,1.104,0.748c0.146,0,0.298-0.027,0.441-0.086c0.608-0.242,0.905-0.935,0.663-1.545L14.284,11.053z
		 M11.798,18.149l1.382-3.456l1.384,3.456H11.798z"/>
	<path fill="#FFFFFF" d="M21.741,10.664h-0.956V9.702c0-0.657-0.533-1.189-1.188-1.189c-0.657,0-1.189,0.533-1.189,1.189v0.962
		h-0.955c-0.656,0-1.189,0.531-1.189,1.188c0,0.657,0.533,1.188,1.189,1.188h0.955v0.962c0,0.655,0.532,1.188,1.189,1.188
		c0.654,0,1.188-0.533,1.188-1.188V13.04h0.956c0.657,0,1.188-0.531,1.188-1.188C22.929,11.195,22.398,10.664,21.741,10.664z"/>
</g>
</svg>
