<?xml version="1.0" encoding="utf-8"?>
<!-- Generator: Adobe Illustrator 16.0.0, SVG Export Plug-In . SVG Version: 6.00 Build 0)  -->
<!DOCTYPE svg PUBLIC "-//W3C//DTD SVG 1.1//EN" "http://www.w3.org/Graphics/SVG/1.1/DTD/svg11.dtd">
<svg version="1.1" id="Capa_1" xmlns="http://www.w3.org/2000/svg" xmlns:xlink="http://www.w3.org/1999/xlink" x="0px" y="0px"
	 width="31px" height="31px" viewBox="0 0 31 31" enable-background="new 0 0 31 31" xml:space="preserve">
<circle fill="#BACC00" cx="15.5" cy="15.396" r="15"/>
<g>
	<g>
		<path fill="#FFFFFF" d="M22.537,7.836h1.881v14.887h-1.881V7.836z M18.804,8.375l-0.26,0.082
			c-0.322,0.102-0.707-0.042-0.838-0.313c-0.061-0.132-0.067-0.278-0.011-0.41c0.069-0.155,0.213-0.276,0.396-0.332l2.924-0.911
			l0.36,2.609c0.02,0.132-0.018,0.268-0.106,0.38c-0.109,0.138-0.281,0.229-0.478,0.248c-0.022,0.001-0.046,0.002-0.074,0.002
			c-0.332,0-0.612-0.211-0.653-0.491l-0.043-0.396C16.633,13.53,8.84,18.555,8.503,18.768c-0.117,0.073-0.251,0.112-0.398,0.112
			c-0.196,0-0.38-0.073-0.504-0.2c-0.117-0.115-0.17-0.263-0.154-0.413c0.018-0.155,0.112-0.302,0.26-0.396
			C7.788,17.819,15.506,12.829,18.804,8.375z M21.024,11.142v11.581h-1.875V11.142H21.024z M17.744,14.583v8.139h-1.875v-8.139
			H17.744z M14.352,18.158v4.564h-1.876v-4.564H14.352z M10.767,19.949v2.773H8.892v-2.773H10.767z M24.999,24.513h-19v-1.392h19
			V24.513L24.999,24.513z"/>
	</g>
</g>
</svg>
