<?xml version="1.0" encoding="utf-8"?>
<!-- Generator: Adobe Illustrator 16.0.0, SVG Export Plug-In . SVG Version: 6.00 Build 0)  -->
<!DOCTYPE svg PUBLIC "-//W3C//DTD SVG 1.1//EN" "http://www.w3.org/Graphics/SVG/1.1/DTD/svg11.dtd">
<svg version="1.1" id="Capa_1" xmlns="http://www.w3.org/2000/svg" xmlns:xlink="http://www.w3.org/1999/xlink" x="0px" y="0px"
	 width="31px" height="31px" viewBox="0 0 31 31" enable-background="new 0 0 31 31" xml:space="preserve">
<g>
	<circle fill="#082D56" cx="15.5" cy="15.5" r="15"/>
	<g>
		<g>
			<path fill="#FFFFFF" d="M24.779,23.665c0,0-0.037-3.515-0.252-3.878c-0.319-0.541-1.063-0.915-2.443-1.492
				c-1.377-0.576-1.816-1.061-1.816-2.1c0-0.623,0.42-0.42,0.604-1.562c0.076-0.474,0.448-0.008,0.519-1.089
				c0-0.432-0.202-0.539-0.202-0.539s0.103-0.638,0.143-1.13c0.05-0.611-0.308-2.191-2.218-2.191c-1.911,0-2.27,1.58-2.219,2.191
				c0.04,0.492,0.143,1.13,0.143,1.13s-0.202,0.107-0.202,0.539c0.071,1.081,0.442,0.615,0.519,1.089
				c0.185,1.143,0.605,0.939,0.605,1.562c0,0.707-0.205,1.158-0.768,1.554c3.006,1.505,3.409,1.812,3.409,3.157v2.759H24.779z
				 M15.707,18.818c-1.835-0.768-2.422-1.416-2.422-2.801c0-0.832,0.561-0.561,0.807-2.084c0.103-0.631,0.598-0.01,0.691-1.453
				c0-0.574-0.27-0.717-0.27-0.717s0.137-0.85,0.19-1.506c0.067-0.814-0.411-2.923-2.958-2.923s-3.024,2.108-2.958,2.923
				c0.053,0.656,0.19,1.506,0.19,1.506s-0.271,0.143-0.271,0.717c0.095,1.443,0.59,0.822,0.692,1.453
				c0.246,1.523,0.807,1.252,0.807,2.084c0,1.385-0.586,2.033-2.422,2.801c-0.559,0.233-1.564,0.595-1.564,1.467v3.38h12.892
				c0,0,0-1.999,0-2.534C19.113,20.336,17.549,19.588,15.707,18.818z"/>
		</g>
	</g>
</g>
</svg>
