<?xml version="1.0" encoding="utf-8"?>
<!-- Generator: Adobe Illustrator 16.0.0, SVG Export Plug-In . SVG Version: 6.00 Build 0)  -->
<!DOCTYPE svg PUBLIC "-//W3C//DTD SVG 1.1//EN" "http://www.w3.org/Graphics/SVG/1.1/DTD/svg11.dtd">
<svg version="1.1" id="Capa_1" xmlns="http://www.w3.org/2000/svg" xmlns:xlink="http://www.w3.org/1999/xlink" x="0px" y="0px"
	 width="31px" height="31px" viewBox="0 0 31 31" enable-background="new 0 0 31 31" xml:space="preserve">
<circle fill="#35A800" cx="15.5" cy="15.396" r="15"/>
<path fill="#FFFFFF" d="M21.843,9.63c-1.696-1.338-3.948-2.076-6.343-2.076S10.854,8.292,9.157,9.63
	c-1.714,1.354-2.658,3.156-2.658,5.079c0,1.155,0.354,2.305,1.025,3.32c0.619,0.938,1.506,1.768,2.576,2.403
	c-0.049,0.347-0.315,1.355-1.741,2.56c-0.074,0.062-0.104,0.162-0.076,0.254c0.027,0.093,0.106,0.16,0.201,0.172
	c0.009,0.002,0.216,0.028,0.583,0.028c1.051,0,3.2-0.209,5.824-1.6c0.202,0.011,0.408,0.016,0.608,0.016
	c2.395,0,4.646-0.736,6.343-2.076c1.714-1.352,2.658-3.155,2.658-5.077C24.501,12.786,23.557,10.984,21.843,9.63z"/>
</svg>
