<?xml version="1.0" encoding="utf-8"?>
<!-- Generator: Adobe Illustrator 16.0.0, SVG Export Plug-In . SVG Version: 6.00 Build 0)  -->
<!DOCTYPE svg PUBLIC "-//W3C//DTD SVG 1.1//EN" "http://www.w3.org/Graphics/SVG/1.1/DTD/svg11.dtd">
<svg version="1.1" id="Capa_1" xmlns="http://www.w3.org/2000/svg" xmlns:xlink="http://www.w3.org/1999/xlink" x="0px" y="0px"
	 width="31px" height="31px" viewBox="0 0 31 31" enable-background="new 0 0 31 31" xml:space="preserve">
<circle fill="#082D56" cx="15.5" cy="15.5" r="15"/>
<g>
	<g>
		<g>
			<g>
				<path fill="#FFFFFF" d="M18.02,11.726H9.594c-0.234,0-0.422-0.188-0.422-0.421c0-0.234,0.188-0.423,0.422-0.423h8.426
					c0.23,0,0.423,0.189,0.423,0.423C18.442,11.538,18.25,11.726,18.02,11.726z"/>
			</g>
			<g>
				<path fill="#FFFFFF" d="M16.008,13.618H9.594c-0.234,0-0.422-0.188-0.422-0.42c0-0.234,0.188-0.424,0.422-0.424h6.414
					c0.232,0,0.421,0.19,0.421,0.424C16.429,13.43,16.24,13.618,16.008,13.618z"/>
			</g>
			<g>
				<path fill="#FFFFFF" d="M11.715,19.297H9.594c-0.234,0-0.422-0.193-0.422-0.424c0-0.235,0.188-0.423,0.422-0.423h2.122
					c0.233,0,0.424,0.188,0.424,0.423C12.139,19.104,11.948,19.297,11.715,19.297z"/>
			</g>
			<g>
				<path fill="#FFFFFF" d="M10.796,21.186H9.594c-0.234,0-0.422-0.189-0.422-0.42c0-0.235,0.188-0.424,0.422-0.424h1.202
					c0.233,0,0.421,0.188,0.421,0.424C11.217,20.995,11.029,21.186,10.796,21.186z"/>
			</g>
			<path fill="#FFFFFF" d="M25.546,7.738l-0.961-0.717c-0.242-0.181-0.542-0.257-0.844-0.213c-0.298,0.044-0.562,0.201-0.743,0.444
				v0l-2.384,3.234V7.273c0-0.233-0.193-0.421-0.424-0.421h-1.748V6.204c0-0.234-0.192-0.423-0.423-0.423
				c-0.235,0-0.424,0.189-0.424,0.423v0.649h-1.262V6.204c0-0.234-0.188-0.423-0.421-0.423c-0.235,0-0.424,0.189-0.424,0.423v0.649
				h-1.262V6.204c0-0.234-0.188-0.423-0.421-0.423c-0.234,0-0.423,0.189-0.423,0.423v0.649h-1.262V6.204
				c0-0.234-0.19-0.423-0.422-0.423c-0.234,0-0.422,0.189-0.422,0.423v0.649h-1.262V6.204c0-0.234-0.188-0.423-0.422-0.423
				c-0.234,0-0.422,0.189-0.422,0.423v0.649h-1.75C7.189,6.853,7,7.041,7,7.273v17.522c0,0.235,0.189,0.424,0.421,0.424H20.19
				c0.23,0,0.424-0.188,0.424-0.424V16.37l5.162-7.047c0.001,0,0.001,0,0.001,0C26.149,8.822,26.047,8.112,25.546,7.738z
				 M19.768,24.373H7.845V7.697h1.327v0.649c0,0.233,0.188,0.421,0.422,0.421c0.233,0,0.422-0.188,0.422-0.421V7.697h1.262v0.649
				c0,0.233,0.188,0.421,0.422,0.421c0.232,0,0.422-0.188,0.422-0.421V7.697h1.262v0.649c0,0.233,0.188,0.421,0.423,0.421
				c0.234,0,0.421-0.188,0.421-0.421V7.697h1.262v0.649c0,0.233,0.188,0.421,0.424,0.421c0.233,0,0.421-0.188,0.421-0.421V7.697
				h1.262v0.649c0,0.233,0.188,0.421,0.424,0.421c0.23,0,0.423-0.188,0.423-0.421V7.697h1.325v3.949l-2.203,3.021H9.594
				c-0.234,0-0.422,0.188-0.422,0.423c0,0.233,0.188,0.421,0.422,0.421h7.358c0,0-2.401,3.292-2.401,3.293l0,0
				c-0.028,0.037-0.048,0.079-0.064,0.128l-0.965,3.303H9.594c-0.234,0-0.422,0.188-0.422,0.423c0,0.23,0.188,0.422,0.422,0.422
				c0,0,4.25-0.004,4.252-0.004l0,0c0.076-0.001,0.152-0.021,0.223-0.063l3.155-2.04c0.042-0.03,0.078-0.061,0.109-0.104
				c0.001-0.001,2.435-3.341,2.435-3.341V24.373L19.768,24.373z M15.127,19.751l1.125,0.841l-1.691,1.092L15.127,19.751z
				 M16.902,20.024l-1.422-1.061l6.659-9.138l1.425,1.063L16.902,20.024z M24.064,10.21L22.64,9.147l0.452-0.609L24.517,9.6
				L24.064,10.21z M25.101,8.819L25.101,8.819l-0.08,0.104l-1.423-1.062l0.079-0.105l0,0c0.044-0.061,0.113-0.102,0.188-0.113
				c0.076-0.01,0.151,0.009,0.213,0.055l0.962,0.717C25.168,8.511,25.197,8.691,25.101,8.819z"/>
		</g>
	</g>
</g>
</svg>
