<?xml version="1.0" encoding="utf-8"?>
<!-- Generator: Adobe Illustrator 16.0.0, SVG Export Plug-In . SVG Version: 6.00 Build 0)  -->
<!DOCTYPE svg PUBLIC "-//W3C//DTD SVG 1.1//EN" "http://www.w3.org/Graphics/SVG/1.1/DTD/svg11.dtd">
<svg version="1.1" id="Capa_1" xmlns="http://www.w3.org/2000/svg" xmlns:xlink="http://www.w3.org/1999/xlink" x="0px" y="0px"
	 width="31px" height="31px" viewBox="59.5 75.887 31 31" enable-background="new 59.5 75.887 31 31" xml:space="preserve">
<circle fill="#BD005A" cx="75" cy="91.387" r="15"/>
<g>
	<g>
		<path fill="#FFFFFF" d="M78.957,81.242H68.744c-0.687,0-1.244,0.558-1.244,1.241v17.809c0,0.687,0.558,1.244,1.244,1.244h12.511
			c0.688,0,1.245-0.558,1.245-1.244V85.089L78.957,81.242z M79.251,83.103l1.552,1.687h-1.552V83.103z M81.456,100.291
			c0,0.108-0.088,0.197-0.201,0.197H68.744c-0.11,0-0.199-0.089-0.199-0.197V82.483c0-0.106,0.089-0.198,0.199-0.198h9.462v3.029
			c0,0.287,0.235,0.521,0.524,0.521h2.726V100.291L81.456,100.291z M70.388,86.798h8.875c0.218,0,0.394,0.176,0.394,0.393
			c0,0.215-0.176,0.391-0.394,0.391h-8.875c-0.215,0-0.391-0.176-0.391-0.391C69.997,86.973,70.173,86.798,70.388,86.798
			L70.388,86.798z M79.656,89.822c0,0.217-0.176,0.393-0.394,0.393h-8.875c-0.215,0-0.391-0.176-0.391-0.393
			c0-0.215,0.176-0.391,0.391-0.391h8.875C79.48,89.431,79.656,89.606,79.656,89.822L79.656,89.822z M79.656,92.368
			c0,0.217-0.176,0.393-0.394,0.393h-8.875c-0.215,0-0.391-0.176-0.391-0.393c0-0.218,0.176-0.394,0.391-0.394h8.875
			C79.48,91.974,79.656,92.15,79.656,92.368L79.656,92.368z M79.656,94.952c0,0.218-0.176,0.394-0.394,0.394h-8.875
			c-0.215,0-0.391-0.176-0.391-0.394c0-0.212,0.176-0.388,0.391-0.388h8.875C79.48,94.564,79.656,94.74,79.656,94.952L79.656,94.952
			z"/>
	</g>
</g>
</svg>
