<?xml version="1.0" encoding="utf-8"?>
<!-- Generator: Adobe Illustrator 16.0.0, SVG Export Plug-In . SVG Version: 6.00 Build 0)  -->
<!DOCTYPE svg PUBLIC "-//W3C//DTD SVG 1.1//EN" "http://www.w3.org/Graphics/SVG/1.1/DTD/svg11.dtd">
<svg version="1.1" id="Capa_1" xmlns="http://www.w3.org/2000/svg" xmlns:xlink="http://www.w3.org/1999/xlink" x="0px" y="0px"
	 width="31px" height="31px" viewBox="0 0 31 31" enable-background="new 0 0 31 31" xml:space="preserve">
<circle fill="#BACC00" cx="15.5" cy="15.396" r="15"/>
<g>
	<g>
		<g>
			<path fill="#FFFFFF" d="M22.041,5.173H6.5v18.553h15.541V5.173z M21.108,22.792c-0.846,0-12.825,0-13.675,0
				c0-0.861,0-15.825,0-16.686c0.851,0,12.83,0,13.675,0C21.108,6.967,21.108,21.931,21.108,22.792z"/>
			<rect x="9.066" y="8.187" fill="#FFFFFF" width="10.622" height="0.978"/>
			<rect x="9.066" y="11.273" fill="#FFFFFF" width="10.622" height="0.982"/>
			<polygon fill="#FFFFFF" points="22.686,7.274 22.686,8.211 23.565,8.211 23.565,24.89 9.886,24.89 9.886,24.24 8.952,24.24 
				8.952,25.832 24.5,25.832 24.5,7.274 			"/>
			<path fill="#FFFFFF" d="M9.461,18.541c0.185,0,0.353-0.053,0.509-0.126l1.33,1.09c-0.004,0.053-0.029,0.093-0.029,0.146
				c0,0.648,0.521,1.173,1.169,1.173c0.643,0,1.167-0.525,1.167-1.173c0-0.181-0.053-0.353-0.13-0.51
				c0.641-0.955,1.459-2.185,1.95-2.922c0.073,0.017,0.144,0.041,0.228,0.041c0.276,0,0.527-0.109,0.724-0.275
				c0.439,0.256,1.015,0.588,1.507,0.873c-0.01,0.018-0.015,0.032-0.015,0.049c0,0.648,0.525,1.165,1.165,1.165
				c0.646,0,1.171-0.518,1.171-1.165c0-0.646-0.524-1.167-1.171-1.167c-0.284,0-0.533,0.115-0.74,0.287l-1.493-0.872
				c0.001-0.021,0.015-0.038,0.015-0.056c0-0.643-0.524-1.163-1.167-1.163c-0.643,0-1.163,0.521-1.163,1.163
				c0,0.218,0.073,0.405,0.176,0.581c-0.614,0.917-1.413,2.122-1.915,2.877c-0.098-0.033-0.201-0.067-0.309-0.067
				c-0.244,0-0.455,0.089-0.641,0.214c-0.369-0.302-0.826-0.673-1.238-1.007c0.033-0.104,0.068-0.208,0.068-0.316
				c0-0.648-0.527-1.172-1.169-1.172c-0.643,0-1.168,0.524-1.168,1.172C8.293,18.017,8.813,18.541,9.461,18.541z"/>
		</g>
	</g>
</g>
</svg>
