<?xml version="1.0" encoding="utf-8"?>
<!-- Generator: Adobe Illustrator 16.0.0, SVG Export Plug-In . SVG Version: 6.00 Build 0)  -->
<!DOCTYPE svg PUBLIC "-//W3C//DTD SVG 1.1//EN" "http://www.w3.org/Graphics/SVG/1.1/DTD/svg11.dtd">
<svg version="1.1" id="Capa_1" xmlns="http://www.w3.org/2000/svg" xmlns:xlink="http://www.w3.org/1999/xlink" x="0px" y="0px"
	 width="31px" height="31px" viewBox="0 0 31 31" enable-background="new 0 0 31 31" xml:space="preserve">
<circle fill="#00A89B" cx="15.5" cy="15.396" r="15"/>
<g>
	<g>
		<path fill="#FFFFFF" d="M22.955,4.673H10.994c-0.852,0-1.544,0.693-1.544,1.545v0.985H8.045C7.193,7.203,6.5,7.896,6.5,8.748
			v16.034c0,0.851,0.693,1.545,1.545,1.545h11.96c0.853,0,1.545-0.694,1.545-1.545v-0.985h1.405c0.853,0,1.545-0.692,1.545-1.545
			V6.218C24.5,5.366,23.808,4.673,22.955,4.673z M20.314,24.782c0,0.171-0.139,0.31-0.31,0.31H8.045
			c-0.171,0-0.309-0.139-0.309-0.31V8.748c0-0.171,0.138-0.309,0.309-0.309H9.45v13.812c0,0.853,0.692,1.544,1.544,1.544h9.32
			V24.782L20.314,24.782z M23.265,22.252c0,0.171-0.139,0.31-0.31,0.31H10.994c-0.17,0-0.309-0.139-0.309-0.31V6.218
			c0-0.171,0.139-0.31,0.309-0.31h11.961c0.171,0,0.31,0.139,0.31,0.31V22.252L23.265,22.252z"/>
		<path fill="#FFFFFF" d="M21.506,8.51h-9.062c-0.34,0-0.617,0.276-0.617,0.617c0,0.342,0.277,0.618,0.617,0.618h9.062
			c0.34,0,0.617-0.276,0.617-0.618C22.123,8.786,21.846,8.51,21.506,8.51z"/>
		<path fill="#FFFFFF" d="M21.506,11.449h-9.062c-0.34,0-0.617,0.277-0.617,0.619c0,0.34,0.277,0.617,0.617,0.617h9.062
			c0.34,0,0.617-0.277,0.617-0.617C22.123,11.727,21.846,11.449,21.506,11.449z"/>
		<path fill="#FFFFFF" d="M21.506,14.39h-9.062c-0.34,0-0.617,0.276-0.617,0.618c0,0.341,0.277,0.617,0.617,0.617h9.062
			c0.34,0,0.617-0.276,0.617-0.617C22.123,14.666,21.846,14.39,21.506,14.39z"/>
		<path fill="#FFFFFF" d="M21.506,17.33h-9.062c-0.34,0-0.617,0.277-0.617,0.617c0,0.343,0.277,0.617,0.617,0.617h9.062
			c0.34,0,0.617-0.274,0.617-0.617C22.123,17.607,21.846,17.33,21.506,17.33z"/>
	</g>
</g>
</svg>
