<?xml version="1.0" encoding="utf-8"?>
<!-- Generator: Adobe Illustrator 16.0.0, SVG Export Plug-In . SVG Version: 6.00 Build 0)  -->
<!DOCTYPE svg PUBLIC "-//W3C//DTD SVG 1.1//EN" "http://www.w3.org/Graphics/SVG/1.1/DTD/svg11.dtd">
<svg version="1.1" id="Capa_1" xmlns="http://www.w3.org/2000/svg" xmlns:xlink="http://www.w3.org/1999/xlink" x="0px" y="0px"
	 width="31px" height="31px" viewBox="0 0 31 31" enable-background="new 0 0 31 31" xml:space="preserve">
<circle fill="#BD005A" cx="15.5" cy="15.5" r="15"/>
<g>
	<g id="_x35_4_43_">
		<g>
			<path fill="#FFFFFF" d="M14.743,11.814c2.774,0,2.519,0,5.296,0c0.694,0,0.694-1.082,0-1.082c-2.777,0-2.521,0-5.296,0
				C14.044,10.733,14.044,11.814,14.743,11.814z"/>
			<path fill="#FFFFFF" d="M20.039,14.154c-2.777,0-2.521,0-5.296,0c-0.699,0-0.699,1.082,0,1.082c2.774,0,2.519,0,5.296,0
				C20.734,15.236,20.734,14.154,20.039,14.154z"/>
			<path fill="#FFFFFF" d="M20.039,17.39c-2.777,0-2.521,0-5.296,0c-0.699,0-0.699,1.082,0,1.082c2.774,0,2.519,0,5.296,0
				C20.734,18.472,20.734,17.39,20.039,17.39z"/>
			<path fill="#FFFFFF" d="M20.039,20.813c-2.777,0-2.521,0-5.296,0c-0.699,0-0.699,1.077,0,1.077c2.774,0,2.519,0,5.296,0
				C20.734,21.891,20.734,20.813,20.039,20.813z"/>
			<path fill="#FFFFFF" d="M12.766,10.461h-1.507c-0.056,0-0.101,0.032-0.101,0.074v1.521c0,0.039,0.044,0.073,0.101,0.073h1.507
				c0.053,0,0.098-0.034,0.098-0.073v-1.521C12.864,10.493,12.82,10.461,12.766,10.461z"/>
			<path fill="#FFFFFF" d="M12.673,13.833h-1.507c-0.053,0-0.098,0.034-0.098,0.073v1.521c0,0.042,0.044,0.073,0.098,0.073h1.507
				c0.054,0,0.098-0.031,0.098-0.073v-1.521C12.771,13.867,12.729,13.833,12.673,13.833z"/>
			<path fill="#FFFFFF" d="M12.673,17.113h-1.507c-0.053,0-0.098,0.032-0.098,0.074v1.52c0,0.042,0.044,0.074,0.098,0.074h1.507
				c0.054,0,0.098-0.032,0.098-0.074v-1.52C12.771,17.146,12.729,17.113,12.673,17.113z"/>
			<path fill="#FFFFFF" d="M12.673,20.521h-1.507c-0.053,0-0.098,0.032-0.098,0.074v1.517c0,0.041,0.044,0.073,0.098,0.073h1.507
				c0.054,0,0.098-0.032,0.098-0.073v-1.517C12.771,20.553,12.729,20.521,12.673,20.521z"/>
			<path fill="#FFFFFF" d="M20.215,5.761H8V25.24h15V8.463L20.215,5.761z M21.701,23.94H9.296V7.058h10.249v2.058h2.156V23.94z"/>
		</g>
	</g>
</g>
</svg>
