<?xml version="1.0" encoding="utf-8"?>
<!-- Generator: Adobe Illustrator 16.0.0, SVG Export Plug-In . SVG Version: 6.00 Build 0)  -->
<!DOCTYPE svg PUBLIC "-//W3C//DTD SVG 1.1//EN" "http://www.w3.org/Graphics/SVG/1.1/DTD/svg11.dtd">
<svg version="1.1" id="Capa_1" xmlns="http://www.w3.org/2000/svg" xmlns:xlink="http://www.w3.org/1999/xlink" x="0px" y="0px"
	 width="31px" height="31px" viewBox="0 0 31 31" enable-background="new 0 0 31 31" xml:space="preserve">
<circle fill="#BACC00" cx="15.5" cy="15.396" r="15"/>
<g>
	<path fill="#FFFFFF" d="M15.214,24.352h-0.079c-1.237-0.039-2.108-0.947-2.073-2.167c0.033-1.197,0.926-2.066,2.124-2.066h0.07
		c1.271,0.039,2.134,0.939,2.097,2.193C17.317,23.513,16.439,24.352,15.214,24.352z M20.415,14.028
		c-0.29,0.413-0.928,0.926-1.734,1.553l-0.887,0.614c-0.487,0.378-0.782,0.733-0.892,1.083c-0.087,0.279-0.131,0.35-0.138,0.913
		l-0.002,0.14h-3.389l0.011-0.284c0.042-1.18,0.07-1.873,0.559-2.445c0.765-0.9,2.456-1.988,2.528-2.034
		c0.242-0.181,0.445-0.389,0.598-0.612c0.356-0.489,0.514-0.876,0.514-1.256c0-0.527-0.157-1.014-0.465-1.446
		c-0.298-0.417-0.861-0.629-1.678-0.629c-0.808,0-1.361,0.256-1.693,0.782c-0.341,0.542-0.514,1.11-0.514,1.691v0.146H9.741
		l0.006-0.151c0.09-2.141,0.854-3.681,2.27-4.581c0.889-0.573,1.995-0.863,3.286-0.863c1.691,0,3.118,0.411,4.241,1.221
		c1.138,0.822,1.715,2.049,1.715,3.653C21.259,12.42,20.975,13.262,20.415,14.028z"/>
</g>
</svg>
