<?xml version="1.0" encoding="utf-8"?>
<!-- Generator: Adobe Illustrator 16.0.0, SVG Export Plug-In . SVG Version: 6.00 Build 0)  -->
<!DOCTYPE svg PUBLIC "-//W3C//DTD SVG 1.1//EN" "http://www.w3.org/Graphics/SVG/1.1/DTD/svg11.dtd">
<svg version="1.1" id="Capa_1" xmlns="http://www.w3.org/2000/svg" xmlns:xlink="http://www.w3.org/1999/xlink" x="0px" y="0px"
	 width="31px" height="31px" viewBox="0 0 31 31" enable-background="new 0 0 31 31" xml:space="preserve">
<circle fill="#A8007E" cx="15.5" cy="15.396" r="15"/>
<g>
	<g>
		<path fill="#FFFFFF" d="M21.856,24.177c-0.027,0.053-0.02,0.119,0.026,0.16s0.114,0.043,0.165,0.008
			c1.801-1.338,3.181-3.21,3.898-5.383c0.038-0.113,0.025-0.239-0.033-0.344c-0.06-0.105-0.162-0.178-0.279-0.203l-0.031-0.008
			c-0.238-0.049-0.483,0.061-0.605,0.273L21.856,24.177z"/>
		<path fill="#FFFFFF" d="M19.452,17.115c-0.32-0.066-0.646,0.081-0.809,0.366l-4.49,7.992c-0.113,0.201-0.116,0.446-0.007,0.648
			c0.109,0.204,0.314,0.338,0.545,0.354c0.002,0,0.005,0,0.009,0c0.312,0.022,0.609-0.135,0.764-0.407l4.483-7.848
			c0.119-0.209,0.13-0.461,0.033-0.68C19.882,17.323,19.687,17.163,19.452,17.115z"/>
		<path fill="#FFFFFF" d="M16.101,4.521l0.139,9.418c0.01,0.551,0.398,1.024,0.938,1.138l9.219,1.936
			c0.067-0.49,0.104-0.996,0.104-1.509C26.5,9.631,21.897,4.833,16.101,4.521z"/>
		<path fill="#FFFFFF" d="M16.401,16.474c-0.303-0.064-0.613,0.078-0.764,0.346l-4.469,7.961c-0.098,0.174-0.115,0.383-0.049,0.572
			c0.069,0.187,0.213,0.338,0.401,0.41c0.008,0.004,0.017,0.006,0.026,0.01c0.325,0.126,0.69-0.007,0.861-0.31l4.465-7.946
			c0.109-0.197,0.121-0.434,0.027-0.641C16.809,16.669,16.622,16.522,16.401,16.474z"/>
		<path fill="#FFFFFF" d="M14.574,4.543C8.932,5.015,4.5,9.741,4.5,15.504c0,3.847,1.973,7.23,4.961,9.196l4.879-8.689
			c0.257-0.459,0.389-0.976,0.381-1.501L14.574,4.543z"/>
		<path fill="#FFFFFF" d="M22.583,17.774c-0.331-0.069-0.668,0.083-0.836,0.375l-3.902,6.832c-0.148,0.258-0.125,0.579,0.062,0.812
			c0.186,0.233,0.492,0.329,0.776,0.243c0.272-0.081,0.505-0.266,0.644-0.512l3.773-6.604c0.121-0.215,0.135-0.478,0.031-0.705
			C23.032,17.989,22.827,17.824,22.583,17.774z"/>
	</g>
</g>
</svg>
