<?xml version="1.0" encoding="utf-8"?>
<!-- Generator: Adobe Illustrator 16.0.0, SVG Export Plug-In . SVG Version: 6.00 Build 0)  -->
<!DOCTYPE svg PUBLIC "-//W3C//DTD SVG 1.1//EN" "http://www.w3.org/Graphics/SVG/1.1/DTD/svg11.dtd">
<svg version="1.1" id="Capa_1" xmlns="http://www.w3.org/2000/svg" xmlns:xlink="http://www.w3.org/1999/xlink" x="0px" y="0px"
	 width="17px" height="12px" viewBox="0 0 17 12" enable-background="new 0 0 17 12" xml:space="preserve">
<g>
	<g>
		<path fill="#3C4242" d="M15.261,2.254h-0.994c-1.442-0.644-2.667-0.974-3.643-0.974c-1.265,0-1.856,0.55-2.124,0.97
			c-0.268-0.42-0.858-0.97-2.123-0.97c-0.976,0-2.201,0.33-3.643,0.974H1.739c-0.423,0-0.766,0.343-0.766,0.766v7.457
			c0,0.423,0.343,0.766,0.766,0.766h13.521c0.423,0,0.766-0.343,0.766-0.766V3.021C16.026,2.598,15.684,2.254,15.261,2.254z
			 M8.293,2.719C8.29,2.731,8.29,2.743,8.29,2.755v7.032C7.954,9.4,7.394,9.104,6.454,9.104c-1.675,0-3.779,0.919-4.53,1.274V3.062
			c0.644-0.327,1.244-0.594,1.805-0.808c1.028-0.391,1.916-0.591,2.647-0.591c0.898,0,1.389,0.3,1.654,0.591
			C8.185,2.422,8.263,2.587,8.3,2.689C8.296,2.707,8.293,2.719,8.293,2.719z M15.076,10.379c-0.751-0.355-2.854-1.274-4.53-1.274
			c-0.939,0-1.5,0.296-1.836,0.683C8.698,9.802,8.685,9.814,8.673,9.83V2.777C8.677,2.761,8.685,2.73,8.7,2.691
			C8.737,2.59,8.818,2.423,8.974,2.255c0.267-0.292,0.758-0.591,1.65-0.591c0.731,0,1.619,0.201,2.647,0.591
			c0.561,0.214,1.161,0.481,1.804,0.808L15.076,10.379L15.076,10.379z"/>
	</g>
</g>
</svg>
