<?xml version="1.0" encoding="utf-8"?>
<!-- Generator: Adobe Illustrator 16.0.0, SVG Export Plug-In . SVG Version: 6.00 Build 0)  -->
<!DOCTYPE svg PUBLIC "-//W3C//DTD SVG 1.1//EN" "http://www.w3.org/Graphics/SVG/1.1/DTD/svg11.dtd">
<svg version="1.1" id="Capa_1" xmlns="http://www.w3.org/2000/svg" xmlns:xlink="http://www.w3.org/1999/xlink" x="0px" y="0px"
	 width="31px" height="31px" viewBox="0 0 31 31" enable-background="new 0 0 31 31" xml:space="preserve">
<circle fill="#00A89B" cx="15.5" cy="15.5" r="15"/>
<path fill="#FFFFFF" d="M21.734,17.876v-4.752C23.549,13.048,25,11.549,25,9.718c0-1.88-1.525-3.409-3.41-3.409
	c-1.875,0-3.4,1.521-3.404,3.395l-6.023,3.763c-0.621-0.851-1.624-1.405-2.754-1.405c-1.879,0-3.408,1.53-3.408,3.41
	c0,1.879,1.529,3.408,3.408,3.408c1.131,0,2.134-0.555,2.754-1.399l6.023,3.756c0,0.017,0,0.033,0,0.05
	c0,1.878,1.525,3.403,3.404,3.403c1.885,0,3.41-1.525,3.41-3.403C25,19.451,23.549,17.952,21.734,17.876z M21.59,23.491
	c-1.215,0-2.207-0.994-2.207-2.208c0-1.219,0.992-2.207,2.207-2.207c1.221,0,2.207,0.988,2.207,2.207
	C23.797,22.497,22.809,23.491,21.59,23.491z M21.59,7.51c1.221,0,2.207,0.992,2.207,2.208c0,1.217-0.988,2.208-2.207,2.208
	c-1.215,0-2.207-0.991-2.207-2.208C19.383,8.502,20.375,7.51,21.59,7.51z M9.408,17.676c-1.216,0-2.208-0.988-2.208-2.205
	c0-1.217,0.992-2.207,2.208-2.207c1.219,0,2.207,0.991,2.207,2.207S10.625,17.676,9.408,17.676z M12.496,16.914
	c0.074-0.157,0.137-0.323,0.186-0.498c0.004-0.004,0.005-0.009,0.006-0.014c0.003-0.016,0.008-0.03,0.011-0.047
	c0.005-0.016,0.008-0.025,0.011-0.041c0.004-0.016,0.007-0.023,0.009-0.037c0.005-0.019,0.008-0.035,0.014-0.053
	c0.002-0.015,0.004-0.022,0.008-0.037c0.003-0.018,0.005-0.035,0.01-0.053c0.002-0.01,0.004-0.023,0.005-0.037
	c0.005-0.017,0.007-0.029,0.009-0.048c0.004-0.014,0.006-0.028,0.008-0.043c0.001-0.014,0.005-0.026,0.006-0.041
	c0.002-0.015,0.004-0.034,0.008-0.051c0.001-0.009,0.001-0.018,0.002-0.026c0.002-0.025,0.006-0.046,0.008-0.071v-0.001
	c0.011-0.114,0.019-0.232,0.019-0.347c0-0.501-0.11-0.997-0.322-1.445l5.762-3.599c0.014,0.083,0.039,0.167,0.062,0.249
	c0,0.007,0.002,0.011,0.004,0.019c0.012,0.029,0.018,0.057,0.029,0.084c0.008,0.034,0.02,0.065,0.029,0.099
	c0.006,0.004,0.008,0.009,0.01,0.013c0.367,1.011,1.201,1.797,2.242,2.099c0.01,0.004,0.021,0.007,0.035,0.009
	c0.014,0.006,0.029,0.009,0.047,0.016c0.123,0.031,0.242,0.057,0.367,0.075v4.821c-1.1,0.165-2.037,0.859-2.525,1.818
	c0,0.002-0.002,0.004-0.002,0.004c-0.027,0.05-0.051,0.095-0.07,0.144c0,0.002,0,0.003-0.002,0.005
	c-0.012,0.021-0.02,0.041-0.029,0.066c-0.004,0.009-0.008,0.021-0.018,0.037c-0.008,0.023-0.021,0.055-0.027,0.08
	c-0.012,0.02-0.018,0.039-0.027,0.06c-0.004,0.017-0.008,0.03-0.012,0.048c-0.012,0.025-0.02,0.057-0.031,0.083
	c-0.002,0.011-0.004,0.017-0.006,0.028c-0.012,0.029-0.02,0.062-0.031,0.098c0,0.006-0.002,0.018-0.004,0.021
	c-0.012,0.037-0.02,0.082-0.029,0.119L12.496,16.914z"/>
</svg>
