<?xml version="1.0" encoding="utf-8"?>
<!-- Generator: Adobe Illustrator 16.0.0, SVG Export Plug-In . SVG Version: 6.00 Build 0)  -->
<!DOCTYPE svg PUBLIC "-//W3C//DTD SVG 1.1//EN" "http://www.w3.org/Graphics/SVG/1.1/DTD/svg11.dtd">
<svg version="1.1" id="Capa_1" xmlns="http://www.w3.org/2000/svg" xmlns:xlink="http://www.w3.org/1999/xlink" x="0px" y="0px"
	 width="12px" height="12px" viewBox="0 0 12 12" enable-background="new 0 0 12 12" xml:space="preserve">
<g>
	<path fill="#FFFFFF" d="M10.368,1.278H6.942c-0.34,0-0.615,0.276-0.615,0.614c0,0.339,0.275,0.614,0.615,0.614h1.943L5.644,5.748
		c-0.115,0.117-0.18,0.271-0.18,0.435c0,0.165,0.064,0.318,0.18,0.434c0.115,0.116,0.27,0.181,0.434,0.181s0.318-0.064,0.436-0.18
		l3.24-3.242v1.944c0,0.338,0.275,0.614,0.615,0.614c0.338,0,0.613-0.275,0.613-0.614V1.892C10.981,1.554,10.706,1.278,10.368,1.278
		z"/>
	<path fill="#FFFFFF" d="M8.077,10.188H2.071V4.183h4.517L7.641,3.13H1.545c-0.291,0-0.526,0.235-0.526,0.526v7.058
		c0,0.291,0.236,0.525,0.526,0.525h7.058c0.291,0,0.527-0.234,0.527-0.525V4.619L8.077,5.672V10.188z"/>
</g>
</svg>
