<?xml version="1.0" encoding="utf-8"?>
<!-- Generator: Adobe Illustrator 16.0.0, SVG Export Plug-In . SVG Version: 6.00 Build 0)  -->
<!DOCTYPE svg PUBLIC "-//W3C//DTD SVG 1.1//EN" "http://www.w3.org/Graphics/SVG/1.1/DTD/svg11.dtd">
<svg version="1.1" id="Capa_1" xmlns="http://www.w3.org/2000/svg" xmlns:xlink="http://www.w3.org/1999/xlink" x="0px" y="0px"
	 width="31px" height="31px" viewBox="0 0 31 31" enable-background="new 0 0 31 31" xml:space="preserve">
<circle fill="#082D56" cx="15.5" cy="15.5" r="15"/>
<g>
	<path fill="#FFFFFF" d="M18.93,6.706h-8.851C9.484,6.706,9,7.19,9,7.785v15.431c0,0.596,0.484,1.079,1.079,1.079h10.842
		c0.596,0,1.079-0.483,1.079-1.079V10.041L18.93,6.706z M19.184,8.32l1.346,1.462h-1.346V8.32z M21.095,23.216
		c0,0.094-0.076,0.172-0.174,0.172H10.079c-0.095,0-0.172-0.078-0.172-0.172V7.785c0-0.095,0.077-0.174,0.172-0.174h8.201v2.624
		c0,0.25,0.203,0.452,0.454,0.452h2.361V23.216z M11.503,11.522h7.691c0.188,0,0.341,0.152,0.341,0.34
		c0,0.187-0.152,0.339-0.341,0.339h-7.691c-0.187,0-0.339-0.152-0.339-0.339C11.164,11.674,11.316,11.522,11.503,11.522z
		 M19.535,14.142c0,0.188-0.152,0.34-0.341,0.34h-7.691c-0.187,0-0.339-0.152-0.339-0.34c0-0.187,0.152-0.338,0.339-0.338h7.691
		C19.383,13.804,19.535,13.956,19.535,14.142z M19.535,16.349c0,0.188-0.152,0.341-0.341,0.341h-7.691
		c-0.187,0-0.339-0.152-0.339-0.341c0-0.188,0.152-0.34,0.339-0.34h7.691C19.383,16.009,19.535,16.161,19.535,16.349z
		 M19.535,18.593c0,0.186-0.152,0.338-0.341,0.338h-7.691c-0.187,0-0.339-0.152-0.339-0.338c0-0.188,0.152-0.34,0.339-0.34h7.691
		C19.383,18.253,19.535,18.405,19.535,18.593z"/>
</g>
</svg>
