<?xml version="1.0" encoding="utf-8"?>
<!-- Generator: Adobe Illustrator 16.0.0, SVG Export Plug-In . SVG Version: 6.00 Build 0)  -->
<!DOCTYPE svg PUBLIC "-//W3C//DTD SVG 1.1//EN" "http://www.w3.org/Graphics/SVG/1.1/DTD/svg11.dtd">
<svg version="1.1" id="Capa_1" xmlns="http://www.w3.org/2000/svg" xmlns:xlink="http://www.w3.org/1999/xlink" x="0px" y="0px"
	 width="31px" height="31px" viewBox="59.5 75.5 31 31" enable-background="new 59.5 75.5 31 31" xml:space="preserve">
<circle fill="#BACC00" cx="75" cy="91" r="15"/>
<path fill="#FFFFFF" d="M84.052,92.114h-0.373v-4.699c0-0.249-0.2-0.448-0.448-0.448h-0.355v-1.314c0-0.249-0.203-0.447-0.444-0.447
	h-0.538V83.89c0-0.249-0.203-0.448-0.45-0.448H68.557c-0.247,0-0.446,0.2-0.446,0.448v1.315h-0.538
	c-0.248,0-0.448,0.198-0.448,0.447v1.314h-0.358c-0.246,0-0.445,0.2-0.445,0.448v4.699h-0.374c-0.248,0-0.448,0.198-0.448,0.449
	v5.547c0,0.247,0.2,0.45,0.448,0.45h18.104c0.248,0,0.448-0.203,0.448-0.45v-5.547C84.5,92.312,84.3,92.114,84.052,92.114z
	 M69.004,84.337h11.99v0.867h-11.99V84.337z M68.019,86.1h13.961v0.866H68.019V86.1z M67.213,87.862h15.571v4.252h-3.438
	c-0.217,0-0.4,0.154-0.439,0.363L78.53,94.47h-7.06l-0.378-1.992c-0.04-0.209-0.225-0.363-0.439-0.363h-3.439L67.213,87.862
	L67.213,87.862z"/>
</svg>
