<?xml version="1.0" encoding="utf-8"?>
<!-- Generator: Adobe Illustrator 16.0.0, SVG Export Plug-In . SVG Version: 6.00 Build 0)  -->
<!DOCTYPE svg PUBLIC "-//W3C//DTD SVG 1.1//EN" "http://www.w3.org/Graphics/SVG/1.1/DTD/svg11.dtd">
<svg version="1.1" id="Capa_1" xmlns="http://www.w3.org/2000/svg" xmlns:xlink="http://www.w3.org/1999/xlink" x="0px" y="0px"
	 width="31px" height="31px" viewBox="0 0 31 31" enable-background="new 0 0 31 31" xml:space="preserve">
<g>
	<circle fill="#BD005A" cx="15.5" cy="15.5" r="15"/>
	<path fill="#FFFFFF" d="M21.944,8.66c-1.108-1.111-2.584-1.722-4.152-1.722c-1.569,0-3.044,0.61-4.153,1.722
		c-1.108,1.107-1.72,2.584-1.72,4.15c0,1.318,0.434,2.57,1.229,3.596l-1.13,1.13l-0.114-0.114c-0.156-0.158-0.41-0.158-0.567,0
		l-3.62,3.619c-0.509,0.51-0.509,1.336,0,1.846c0.246,0.246,0.574,0.382,0.923,0.382s0.675-0.136,0.922-0.382l3.62-3.62
		c0.157-0.157,0.157-0.411,0-0.568l-0.114-0.114l1.13-1.129c1.024,0.797,2.276,1.23,3.595,1.23c1.568,0,3.044-0.613,4.152-1.721
		c1.109-1.109,1.72-2.585,1.72-4.154C23.664,11.244,23.054,9.768,21.944,8.66z M21.376,16.396c-0.957,0.956-2.23,1.483-3.584,1.483
		s-2.627-0.527-3.585-1.483c-0.958-0.957-1.485-2.232-1.485-3.586s0.527-2.627,1.485-3.583c0.958-0.958,2.231-1.485,3.585-1.485
		s2.627,0.527,3.584,1.485c0.958,0.956,1.485,2.229,1.485,3.583S22.334,15.439,21.376,16.396z M18.073,8.756
		c0.029,0.22-0.123,0.422-0.343,0.451c-0.14,0.021-3.325,0.506-3.325,3.604c0,0.223-0.181,0.402-0.402,0.402
		s-0.402-0.18-0.402-0.402c0-1.993,1.104-3.088,2.028-3.656c0.979-0.599,1.95-0.738,1.991-0.743
		C17.84,8.381,18.043,8.536,18.073,8.756z"/>
</g>
</svg>
