<?xml version="1.0" encoding="utf-8"?>
<!-- Generator: Adobe Illustrator 16.0.0, SVG Export Plug-In . SVG Version: 6.00 Build 0)  -->
<!DOCTYPE svg PUBLIC "-//W3C//DTD SVG 1.1//EN" "http://www.w3.org/Graphics/SVG/1.1/DTD/svg11.dtd">
<svg version="1.1" id="Capa_1" xmlns="http://www.w3.org/2000/svg" xmlns:xlink="http://www.w3.org/1999/xlink" x="0px" y="0px"
	 width="31px" height="31px" viewBox="59.5 75.887 31 31" enable-background="new 59.5 75.887 31 31" xml:space="preserve">
<circle fill="#082D56" cx="75" cy="91.387" r="15"/>
<g>
	<path fill="#FFFFFF" d="M78.958,81.24H68.744c-0.686,0-1.244,0.559-1.244,1.244v17.807c0,0.684,0.559,1.242,1.244,1.242h12.512
		c0.686,0,1.244-0.559,1.244-1.242V85.088L78.958,81.24z M79.254,83.102l1.551,1.689h-1.551V83.102z M81.454,100.289
		c0,0.114-0.091,0.202-0.199,0.202H68.742c-0.108,0-0.199-0.088-0.199-0.202V82.484c0-0.109,0.091-0.198,0.199-0.198h9.462v3.025
		c0,0.289,0.236,0.522,0.522,0.522h2.725v14.455H81.454z"/>
	<path fill="#FFFFFF" d="M70.552,92.182h8.875c0.215,0,0.391,0.176,0.391,0.391c0,0.216-0.177,0.391-0.391,0.391h-8.875
		c-0.216,0-0.392-0.175-0.392-0.391C70.16,92.358,70.336,92.182,70.552,92.182L70.552,92.182z"/>
	<path fill="#FFFFFF" d="M70.552,94.164h8.875c0.215,0,0.391,0.175,0.391,0.395c0,0.214-0.177,0.39-0.391,0.39h-8.875
		c-0.216,0-0.392-0.176-0.392-0.39C70.16,94.339,70.336,94.164,70.552,94.164L70.552,94.164z"/>
	<path fill="#FFFFFF" d="M70.552,96.147h8.875c0.215,0,0.391,0.176,0.391,0.391c0,0.218-0.177,0.394-0.391,0.394h-8.875
		c-0.216,0-0.392-0.176-0.392-0.394C70.16,96.323,70.336,96.147,70.552,96.147L70.552,96.147z"/>
	<path fill="#FFFFFF" d="M70.552,98.133h8.875c0.215,0,0.391,0.176,0.391,0.389c0,0.217-0.177,0.392-0.391,0.392h-8.875
		c-0.216,0-0.392-0.175-0.392-0.392C70.16,98.308,70.336,98.133,70.552,98.133L70.552,98.133z"/>
	<path fill="#FFFFFF" d="M74.989,85.507c-1.48,0-2.679,1.198-2.679,2.677c0,1.478,1.199,2.679,2.679,2.679
		c1.479,0,2.677-1.201,2.677-2.679C77.666,86.705,76.468,85.507,74.989,85.507z M76.412,87.88l-1.423,1.421
		c-0.122,0.095-0.276,0.155-0.401,0.155c-0.156,0-0.279-0.032-0.402-0.155L73.6,88.716c-0.217-0.218-0.217-0.587,0-0.804
		c0.217-0.218,0.586-0.218,0.803,0l0.188,0.185l1.019-1.02c0.217-0.218,0.586-0.218,0.803,0
		C76.631,87.293,76.631,87.662,76.412,87.88z"/>
</g>
</svg>
