<?xml version="1.0" encoding="utf-8"?>
<!-- Generator: Adobe Illustrator 16.0.0, SVG Export Plug-In . SVG Version: 6.00 Build 0)  -->
<!DOCTYPE svg PUBLIC "-//W3C//DTD SVG 1.1//EN" "http://www.w3.org/Graphics/SVG/1.1/DTD/svg11.dtd">
<svg version="1.1" id="Capa_1" xmlns="http://www.w3.org/2000/svg" xmlns:xlink="http://www.w3.org/1999/xlink" x="0px" y="0px"
	 width="31px" height="31px" viewBox="0 0 31 31" enable-background="new 0 0 31 31" xml:space="preserve">
<circle fill="#00A89B" cx="15.5" cy="15.5" r="15"/>
<g>
	<g>
		<path fill="#FFFFFF" d="M23.224,7.716H11.286c-0.191,0-0.348,0.156-0.348,0.348v6.893H7.774c-0.19,0-0.346,0.155-0.346,0.347
			v5.877c0,1.158,0.942,2.104,2.103,2.104c0.03,0,11.936,0,11.936,0c1.159,0,2.104-0.944,2.104-2.104V8.063
			C23.569,7.872,23.414,7.716,23.224,7.716z M8.122,21.181v-5.531h2.816v5.531c0,0.775-0.631,1.408-1.408,1.408
			S8.122,21.956,8.122,21.181z M22.876,21.181c0,0.775-0.632,1.408-1.409,1.408H11.09c0.337-0.373,0.543-0.867,0.543-1.408V8.409
			h11.243V21.181z"/>
		<path fill="#FFFFFF" d="M16.769,11.722h4.443c0.189,0,0.348-0.154,0.348-0.347s-0.156-0.349-0.348-0.349h-4.443
			c-0.191,0-0.348,0.156-0.348,0.349S16.576,11.722,16.769,11.722z"/>
		<path fill="#FFFFFF" d="M16.769,15.529h4.443c0.189,0,0.348-0.154,0.348-0.347c0-0.191-0.156-0.348-0.348-0.348h-4.443
			c-0.191,0-0.348,0.156-0.348,0.348C16.421,15.375,16.576,15.529,16.769,15.529z"/>
		<path fill="#FFFFFF" d="M16.769,19.339h4.443c0.189,0,0.348-0.154,0.348-0.347s-0.156-0.347-0.348-0.347h-4.443
			c-0.191,0-0.348,0.154-0.348,0.347S16.576,19.339,16.769,19.339z"/>
		<path fill="#FFFFFF" d="M13.567,12.11c0.065,0.07,0.156,0.109,0.252,0.109c0.002,0,0.003,0,0.004,0
			c0.097-0.002,0.188-0.041,0.253-0.113l1.903-2.086c0.129-0.142,0.121-0.36-0.021-0.489c-0.141-0.129-0.359-0.119-0.488,0.022
			l-1.652,1.81l-0.516-0.544c-0.132-0.141-0.352-0.146-0.49-0.016c-0.14,0.133-0.146,0.353-0.015,0.49L13.567,12.11z"/>
		<path fill="#FFFFFF" d="M15.47,13.526l-1.652,1.812l-0.516-0.545c-0.132-0.14-0.352-0.146-0.49-0.014
			c-0.14,0.131-0.146,0.352-0.015,0.489l0.771,0.815c0.065,0.07,0.156,0.108,0.252,0.108c0.002,0,0.003,0,0.004,0
			c0.097,0,0.188-0.041,0.253-0.111l1.903-2.087c0.129-0.142,0.121-0.36-0.021-0.49C15.817,13.377,15.599,13.388,15.47,13.526z"/>
		<path fill="#FFFFFF" d="M15.47,17.502l-1.652,1.812l-0.516-0.545c-0.132-0.14-0.352-0.146-0.49-0.015
			c-0.14,0.131-0.146,0.351-0.015,0.49l0.771,0.815c0.065,0.068,0.156,0.108,0.252,0.108c0.002,0,0.003,0,0.004,0
			c0.097-0.001,0.188-0.042,0.253-0.112l1.903-2.087c0.129-0.141,0.121-0.36-0.021-0.489C15.817,17.351,15.599,17.36,15.47,17.502z"
			/>
	</g>
</g>
</svg>
