<?xml version="1.0" encoding="utf-8"?>
<!-- Generator: Adobe Illustrator 16.0.0, SVG Export Plug-In . SVG Version: 6.00 Build 0)  -->
<!DOCTYPE svg PUBLIC "-//W3C//DTD SVG 1.1//EN" "http://www.w3.org/Graphics/SVG/1.1/DTD/svg11.dtd">
<svg version="1.1" id="Capa_1" xmlns="http://www.w3.org/2000/svg" xmlns:xlink="http://www.w3.org/1999/xlink" x="0px" y="0px"
	 width="31px" height="31px" viewBox="0 0 31 31" enable-background="new 0 0 31 31" xml:space="preserve">
<circle fill="#CC7F00" cx="15.5" cy="15.5" r="15"/>
<g>
	<g>
		<path fill="#FFFFFF" d="M22.955,4.673H10.994c-0.852,0-1.543,0.693-1.543,1.544v0.986H8.044C7.193,7.204,6.5,7.896,6.5,8.748
			v16.034c0,0.851,0.693,1.545,1.544,1.545h11.96c0.853,0,1.545-0.694,1.545-1.545v-0.985h1.405c0.853,0,1.545-0.692,1.545-1.545
			V6.217C24.5,5.366,23.808,4.673,22.955,4.673z M20.314,24.782c0,0.171-0.139,0.311-0.31,0.311H8.044
			c-0.17,0-0.309-0.14-0.309-0.311V8.748c0-0.171,0.138-0.309,0.309-0.309h1.406v13.812c0,0.853,0.692,1.545,1.543,1.545h9.32
			V24.782L20.314,24.782z M23.265,22.252c0,0.171-0.139,0.31-0.31,0.31H10.994c-0.17,0-0.309-0.139-0.309-0.31V6.217
			c0-0.171,0.139-0.309,0.309-0.309h11.961c0.171,0,0.31,0.138,0.31,0.309V22.252L23.265,22.252z"/>
		<path fill="#FFFFFF" d="M21.506,8.51h-9.061c-0.34,0-0.618,0.276-0.618,0.618s0.277,0.617,0.618,0.617h9.061
			c0.34,0,0.617-0.276,0.617-0.617S21.846,8.51,21.506,8.51z"/>
		<path fill="#FFFFFF" d="M21.506,11.45h-9.061c-0.34,0-0.618,0.277-0.618,0.617c0,0.342,0.277,0.619,0.618,0.619h9.061
			c0.34,0,0.617-0.277,0.617-0.619C22.123,11.727,21.846,11.45,21.506,11.45z"/>
		<path fill="#FFFFFF" d="M21.506,14.39h-9.061c-0.34,0-0.618,0.276-0.618,0.618s0.277,0.617,0.618,0.617h9.061
			c0.34,0,0.617-0.276,0.617-0.617S21.846,14.39,21.506,14.39z"/>
		<path fill="#FFFFFF" d="M21.506,17.33h-9.061c-0.34,0-0.618,0.277-0.618,0.617c0,0.343,0.277,0.618,0.618,0.618h9.061
			c0.34,0,0.617-0.275,0.617-0.618C22.123,17.607,21.846,17.33,21.506,17.33z"/>
	</g>
</g>
</svg>
