<?xml version="1.0" encoding="utf-8"?>
<!-- Generator: Adobe Illustrator 16.0.0, SVG Export Plug-In . SVG Version: 6.00 Build 0)  -->
<!DOCTYPE svg PUBLIC "-//W3C//DTD SVG 1.1//EN" "http://www.w3.org/Graphics/SVG/1.1/DTD/svg11.dtd">
<svg version="1.1" id="Capa_1" xmlns="http://www.w3.org/2000/svg" xmlns:xlink="http://www.w3.org/1999/xlink" x="0px" y="0px"
	 width="31px" height="31px" viewBox="0 0 31 31" enable-background="new 0 0 31 31" xml:space="preserve">
<circle fill="#C2AB00" cx="15.5" cy="15.396" r="15"/>
<g>
	<g id="_x38_7_36_">
		<g>
			<path fill="#FFFFFF" d="M10.118,14.241c-0.547,0-0.547,0.85,0,0.85c2.178,0,4.355,0,6.535,0c0.547,0,0.547-0.85,0-0.85
				C14.473,14.241,12.296,14.241,10.118,14.241z"/>
			<path fill="#FFFFFF" d="M16.652,16.249c-2.179,0-4.356,0-6.535,0c-0.547,0-0.547,0.85,0,0.85c2.178,0,4.355,0,6.535,0
				C17.199,17.099,17.199,16.249,16.652,16.249z"/>
			<path fill="#FFFFFF" d="M16.652,18.11c-2.179,0-4.356,0-6.535,0c-0.547,0-0.547,0.849,0,0.849c2.178,0,4.355,0,6.535,0
				C17.199,18.959,17.199,18.11,16.652,18.11z"/>
			<path fill="#FFFFFF" d="M16.652,20.119c-2.179,0-4.356,0-6.535,0c-0.547,0-0.547,0.848,0,0.848c2.178,0,4.355,0,6.535,0
				C17.199,20.967,17.199,20.119,16.652,20.119z"/>
			<path fill="#FFFFFF" d="M16.527,22.015c-2.179,0-4.358,0-6.536,0c-0.546,0-0.546,0.849,0,0.849c2.177,0,4.356,0,6.536,0
				C17.072,22.863,17.072,22.015,16.527,22.015z"/>
			<path fill="#FFFFFF" d="M7.285,9.896v15.842h12.2V12.095l-2.267-2.198H7.285z M18.43,24.684H8.34V10.952h8.335v1.673h1.755
				V24.684L18.43,24.684z"/>
			<polygon fill="#FFFFFF" points="9.348,7.47 9.348,9.303 10.402,9.303 10.402,8.524 18.738,8.524 18.738,10.197 20.493,10.197 
				20.493,22.257 20.029,22.257 20.029,23.311 21.547,23.311 21.547,9.667 19.28,7.47 			"/>
			<polygon fill="#FFFFFF" points="21.447,5.262 11.515,5.262 11.515,7.096 12.569,7.096 12.569,6.316 20.905,6.316 20.905,7.99 
				22.659,7.99 22.659,20.049 22.197,20.049 22.197,21.103 23.715,21.103 23.715,7.46 			"/>
		</g>
	</g>
</g>
</svg>
