<?xml version="1.0" encoding="utf-8"?>
<!-- Generator: Adobe Illustrator 16.0.0, SVG Export Plug-In . SVG Version: 6.00 Build 0)  -->
<!DOCTYPE svg PUBLIC "-//W3C//DTD SVG 1.1//EN" "http://www.w3.org/Graphics/SVG/1.1/DTD/svg11.dtd">
<svg version="1.1" id="Capa_1" xmlns="http://www.w3.org/2000/svg" xmlns:xlink="http://www.w3.org/1999/xlink" x="0px" y="0px"
	 width="31px" height="31px" viewBox="0 0 31 31" enable-background="new 0 0 31 31" xml:space="preserve">
<circle fill="#A82C2C" cx="15.5" cy="15.396" r="15"/>
<g>
	<g>
		<path fill="#FFFFFF" d="M24.483,10.073h-1.325c-1.915-0.857-3.538-1.297-4.831-1.297c-1.68,0-2.474,0.732-2.827,1.29
			c-0.354-0.558-1.142-1.29-2.822-1.29c-1.297,0-2.921,0.44-4.842,1.297h-1.32c-0.559,0-1.017,0.458-1.017,1.017V21
			c0,0.564,0.458,1.017,1.017,1.017h17.967c0.564,0,1.017-0.452,1.017-1.017v-9.91C25.5,10.531,25.048,10.073,24.483,10.073z
			 M15.226,10.69c-0.006,0.018-0.007,0.03-0.007,0.048v9.345c-0.442-0.511-1.191-0.913-2.435-0.913
			c-2.227,0-5.025,1.226-6.022,1.696v-9.719c0.857-0.438,1.657-0.791,2.4-1.074c1.367-0.519,2.542-0.788,3.517-0.788
			c1.192,0,1.845,0.399,2.198,0.788c0.204,0.225,0.311,0.441,0.359,0.577C15.228,10.672,15.226,10.689,15.226,10.69z M24.233,20.866
			c-0.997-0.471-3.791-1.696-6.018-1.696c-1.249,0-1.992,0.402-2.435,0.913c-0.018,0.019-0.037,0.037-0.054,0.057v-9.372
			c0.007-0.021,0.018-0.061,0.038-0.116c0.05-0.136,0.157-0.354,0.362-0.578c0.354-0.389,1.012-0.788,2.2-0.788
			c0.964,0,2.149,0.27,3.517,0.788c0.743,0.283,1.543,0.638,2.39,1.074V20.866L24.233,20.866z"/>
	</g>
</g>
</svg>
