<?xml version="1.0" encoding="utf-8"?>
<!-- Generator: Adobe Illustrator 16.0.0, SVG Export Plug-In . SVG Version: 6.00 Build 0)  -->
<!DOCTYPE svg PUBLIC "-//W3C//DTD SVG 1.1//EN" "http://www.w3.org/Graphics/SVG/1.1/DTD/svg11.dtd">
<svg version="1.1" id="Capa_1" xmlns="http://www.w3.org/2000/svg" xmlns:xlink="http://www.w3.org/1999/xlink" x="0px" y="0px"
	 width="31px" height="31px" viewBox="0 0 31 31" enable-background="new 0 0 31 31" xml:space="preserve">
<circle fill="#082D56" cx="15.5" cy="15.5" r="15"/>
<g>
	<g>
		<g>
			<path fill="#FFFFFF" d="M16.329,23.875H7.824V7.029h9.169v2.555c0,0.258,0.21,0.466,0.468,0.466h2.479v8.371
				c0.435,0.011,0.857,0.091,1.257,0.24V9.355c0-0.1-0.039-0.196-0.11-0.267L17.88,5.882c-0.069-0.071-0.166-0.111-0.267-0.111
				H7.699c-0.625,0-1.132,0.508-1.132,1.13v17.099c0,0.624,0.508,1.134,1.132,1.134h9.541
				C16.857,24.782,16.545,24.356,16.329,23.875z"/>
			<path fill="#FFFFFF" d="M24.434,20.138c0-0.209-0.082-0.408-0.232-0.559l-0.591-0.593c-0.15-0.15-0.35-0.23-0.561-0.23
				s-0.41,0.08-0.56,0.23l-0.904,0.903c-0.481-0.346-1.073-0.548-1.713-0.548c-1.627,0-2.944,1.315-2.944,2.942
				c0,1.626,1.317,2.945,2.944,2.945c1.626,0,2.945-1.319,2.945-2.945c0-0.066-0.004-0.13-0.008-0.195l1.391-1.39
				C24.352,20.55,24.434,20.351,24.434,20.138z M23.56,20.315l-2.832,2.83c-0.06,0.06-0.142,0.095-0.225,0.095l0,0
				c-0.086,0-0.166-0.035-0.226-0.095l-1.312-1.312c-0.123-0.126-0.123-0.328,0-0.45l0.254-0.255c0.123-0.122,0.324-0.122,0.448,0
				l0.836,0.834l2.352-2.353c0.06-0.059,0.14-0.094,0.226-0.094c0.083,0,0.164,0.035,0.225,0.094l0.255,0.255
				C23.684,19.987,23.684,20.19,23.56,20.315z"/>
			<path fill="#FFFFFF" d="M14.444,10.795L11.797,11.4l0.605-2.649c-0.928-0.232-1.951,0.014-2.677,0.74
				c-1.099,1.1-1.099,2.881,0,3.979c1.1,1.099,2.881,1.099,3.979,0C14.431,12.746,14.676,11.721,14.444,10.795z"/>
			<path fill="#FFFFFF" d="M14.471,8.727c-0.374-0.374-0.826-0.619-1.304-0.74l-0.605,2.649l2.647-0.607
				C15.09,9.552,14.842,9.101,14.471,8.727z"/>
			<g>
				<path fill="#FFFFFF" d="M9.882,17.294h0.968c0.267,0,0.485-0.217,0.485-0.485s-0.218-0.486-0.485-0.486H9.882
					c-0.269,0-0.487,0.218-0.487,0.486S9.613,17.294,9.882,17.294z"/>
				<path fill="#FFFFFF" d="M13.616,18.121H9.882c-0.269,0-0.487,0.216-0.487,0.484s0.218,0.485,0.487,0.485h3.734
					c0.267,0,0.485-0.217,0.485-0.485S13.882,18.121,13.616,18.121z"/>
				<path fill="#FFFFFF" d="M13.062,19.918H9.882c-0.269,0-0.487,0.216-0.487,0.485c0,0.269,0.218,0.488,0.487,0.488h3.181
					c0.267,0,0.485-0.22,0.485-0.488C13.547,20.134,13.33,19.918,13.062,19.918z"/>
			</g>
		</g>
	</g>
</g>
</svg>
