<?xml version="1.0" encoding="utf-8"?>
<!-- Generator: Adobe Illustrator 16.0.0, SVG Export Plug-In . SVG Version: 6.00 Build 0)  -->
<!DOCTYPE svg PUBLIC "-//W3C//DTD SVG 1.1//EN" "http://www.w3.org/Graphics/SVG/1.1/DTD/svg11.dtd">
<svg version="1.1" id="Capa_1" xmlns="http://www.w3.org/2000/svg" xmlns:xlink="http://www.w3.org/1999/xlink" x="0px" y="0px"
	 width="31px" height="31px" viewBox="0 0 31 31" enable-background="new 0 0 31 31" xml:space="preserve">
<circle fill="#35A800" cx="15.5" cy="15.5" r="15"/>
<g>
	<g>
		<path fill="#FFFFFF" d="M10.75,8.968H7.188C6.532,8.968,6,9.501,6,10.157v13.062c0,0.658,0.531,1.188,1.188,1.188h3.563
			c0.655,0,1.187-0.529,1.187-1.188V10.156C11.938,9.501,11.406,8.968,10.75,8.968z M7.781,20.842c-0.329,0-0.594-0.266-0.594-0.594
			c0-0.326,0.265-0.592,0.594-0.592c0.328,0,0.593,0.266,0.593,0.592C8.375,20.576,8.109,20.842,7.781,20.842z M10.75,13.717H7.188
			v-1.187h3.563L10.75,13.717L10.75,13.717z M10.75,11.343H7.188v-1.188h3.563L10.75,11.343L10.75,11.343z"/>
		<path fill="#FFFFFF" d="M18.468,22.031v-1.189h-3.562v1.189c-0.655,0-1.188,0.529-1.188,1.186h5.938
			C19.656,22.562,19.126,22.031,18.468,22.031z"/>
		<path fill="#FFFFFF" d="M23.812,6.593H9.562c-0.656,0-1.188,0.533-1.188,1.188h1.188h3.562h10.688v9.5H13.125v2.375h10.688
			c0.656,0,1.188-0.529,1.188-1.188V7.781C25,7.125,24.471,6.593,23.812,6.593z M16.688,19.062c-0.328,0-0.595-0.268-0.595-0.596
			c0-0.326,0.267-0.594,0.595-0.594c0.326,0,0.595,0.268,0.595,0.594C17.282,18.795,17.016,19.062,16.688,19.062z"/>
	</g>
</g>
</svg>
