<?xml version="1.0" encoding="utf-8"?>
<!-- Generator: Adobe Illustrator 16.0.0, SVG Export Plug-In . SVG Version: 6.00 Build 0)  -->
<!DOCTYPE svg PUBLIC "-//W3C//DTD SVG 1.1//EN" "http://www.w3.org/Graphics/SVG/1.1/DTD/svg11.dtd">
<svg version="1.1" id="Capa_1" xmlns="http://www.w3.org/2000/svg" xmlns:xlink="http://www.w3.org/1999/xlink" x="0px" y="0px"
	 width="150px" height="182px" viewBox="0 0 150 182" enable-background="new 0 0 150 182" xml:space="preserve">
<g>
	<g>
		
			<linearGradient id="SVGID_1_" gradientUnits="userSpaceOnUse" x1="7.125" y1="92" x2="142.875" y2="92" gradientTransform="matrix(1 0 0 -1 0 183)">
			<stop  offset="0" style="stop-color:#15B7FF"/>
			<stop  offset="0.2478" style="stop-color:#2DC2FF"/>
			<stop  offset="0.7507" style="stop-color:#69C8FF"/>
			<stop  offset="1" style="stop-color:#2DC2FF"/>
		</linearGradient>
		<path fill="url(#SVGID_1_)" d="M75.002,23.125C37.57,23.125,7.125,53.571,7.125,91c0,37.43,30.445,67.875,67.88,67.875
			c37.425,0,67.87-30.445,67.87-67.875C142.875,53.571,112.43,23.125,75.002,23.125z M56.449,78.095l0.137-0.146
			c0.553-0.402,0.822-1.032,0.722-1.69c-1.367-8.225-0.47-11.655-0.167-12.516c2.389-7.333,9.888-10.724,11.359-11.324
			c0.313-0.124,0.893-0.299,1.479-0.39l0.176-0.041l1.205-0.063l0.009,0.074l0.28-0.027c0.248-0.027,0.486-0.06,0.784-0.122
			l0.266-0.057c0.235,0.003,3.154,0.373,7.492,1.703l3.014,1.037c5.512,1.627,8.049,4.656,8.52,5.267
			c4.414,5.001,3.229,12.552,2.137,16.606c-0.123,0.478-0.049,0.97,0.224,1.377l0.249,0.308c0.316,0.435,0.604,2.111-0.354,5.67
			c-0.183,1.082-0.582,1.96-1.174,2.552c-0.22,0.24-0.373,0.547-0.43,0.893c-1.492,8.747-9.327,18.529-17.588,18.529
			c-7.01,0-15.01-9-16.449-18.521c-0.055-0.355-0.203-0.669-0.449-0.938c-0.599-0.621-0.981-1.516-1.211-2.839
			C55.976,80.941,55.907,78.933,56.449,78.095z M40.714,116.023c0.304-0.385,1.999-2.371,5.426-3.68
			c3.013-0.926,10.462-3.4,14.534-6.351c0.191-0.104,0.379-0.306,0.534-0.462c0.377-0.405,0.953-1.026,1.634-1.657l0.381-0.358
			l0.387,0.361c3.587,3.382,7.555,5.232,11.176,5.232c3.804,0,7.726-1.646,11.351-4.764l0.282-0.242l0.769,0.373
			c0.688,0.629,1.877,1.494,2.431,1.756l0.71,0.348l-0.075,0.077l0.313,0.188c0.668,0.404,1.396,0.795,2.248,1.217
			c0.862,0.383,1.586,0.66,2.332,0.908c0.629,0.203,3.98,1.326,7.793,3.09l0.729,0.221c3.729,1.429,5.383,3.41,5.547,3.617
			c4.427,6.561,6.121,18.799,6.755,25.617c-11.562,9.385-26.1,14.551-40.962,14.551c-14.868,0-29.409-5.166-40.964-14.557
			C34.662,134.713,36.345,122.514,40.714,116.023z"/>
	</g>
</g>
</svg>
