<?xml version="1.0" encoding="utf-8"?>
<!-- Generator: Adobe Illustrator 16.0.0, SVG Export Plug-In . SVG Version: 6.00 Build 0)  -->
<!DOCTYPE svg PUBLIC "-//W3C//DTD SVG 1.1//EN" "http://www.w3.org/Graphics/SVG/1.1/DTD/svg11.dtd">
<svg version="1.1" id="Capa_1" xmlns="http://www.w3.org/2000/svg" xmlns:xlink="http://www.w3.org/1999/xlink" x="0px" y="0px"
	 width="150px" height="182.775px" viewBox="0 0 150 182.775" enable-background="new 0 0 150 182.775" xml:space="preserve">
<linearGradient id="SVGID_1_" gradientUnits="userSpaceOnUse" x1="16.3472" y1="92.9109" x2="133.832" y2="92.9109" gradientTransform="matrix(1 0 0 -1 0 183.7749)">
	<stop  offset="0" style="stop-color:#15B7FF"/>
	<stop  offset="0.2478" style="stop-color:#2DC2FF"/>
	<stop  offset="0.7507" style="stop-color:#69C8FF"/>
	<stop  offset="1" style="stop-color:#2DC2FF"/>
</linearGradient>
<path fill="url(#SVGID_1_)" d="M106.091,11.388H26.089c-5.37,0-9.742,4.374-9.742,9.74v139.471c0,5.368,4.373,9.74,9.742,9.74
	h98.001c5.37,0,9.742-4.372,9.742-9.74V41.526L106.091,11.388z M108.396,25.973l12.158,13.218h-12.158V25.973z M125.646,160.588
	c0,0.869-0.698,1.566-1.56,1.566h-98c-0.856,0-1.556-0.697-1.556-1.566V21.13c0-0.856,0.7-1.556,1.556-1.556h74.108v23.708
	c0,2.257,1.851,4.084,4.104,4.084h21.345v113.222H125.646z M58.989,54.922h49.498c1.688,0,3.063,1.378,3.063,3.064
	c0,1.697-1.377,3.073-3.063,3.073H58.989c-1.697,0-3.075-1.376-3.075-3.073C55.914,56.3,57.292,54.922,58.989,54.922L58.989,54.922z
	 M111.551,78.603c0,1.688-1.377,3.062-3.064,3.062H58.99c-1.697,0-3.075-1.376-3.075-3.062c0-1.696,1.378-3.066,3.075-3.066h49.496
	C110.174,75.536,111.551,76.906,111.551,78.603L111.551,78.603z M111.551,98.537c0,1.688-1.377,3.063-3.064,3.063H58.99
	c-1.697,0-3.075-1.377-3.075-3.063c0-1.697,1.378-3.074,3.075-3.074h49.496C110.174,95.462,111.551,96.839,111.551,98.537
	L111.551,98.537z M111.551,118.801c0,1.697-1.377,3.075-3.064,3.075H58.99c-1.697,0-3.075-1.378-3.075-3.075
	c0-1.687,1.378-3.062,3.075-3.062h49.496C110.174,115.737,111.551,117.115,111.551,118.801L111.551,118.801z M43.643,60.51
	l7.224-7.223c1.105-1.104,1.105-2.979,0-4.084c-1.104-1.104-2.979-1.104-4.084,0l-5.174,5.188l-0.944-0.944
	c-1.105-1.105-2.979-1.105-4.084,0c-1.104,1.104-1.104,2.979,0,4.084l2.979,2.979c0.625,0.625,1.25,0.785,2.035,0.785
	C42.233,61.295,43.018,60.99,43.643,60.51z M43.643,80.084l7.224-7.223c1.105-1.105,1.105-2.979,0-4.084
	c-1.104-1.104-2.979-1.104-4.084,0l-5.174,5.188l-0.944-0.942c-1.105-1.105-2.979-1.105-4.084,0c-1.104,1.104-1.104,2.979,0,4.084
	l2.979,2.979c0.625,0.625,1.25,0.785,2.035,0.785C42.233,80.869,43.018,80.564,43.643,80.084z M43.643,100.659l7.224-7.224
	c1.105-1.104,1.105-2.979,0-4.084c-1.104-1.104-2.979-1.104-4.084,0l-5.174,5.188l-0.944-0.942c-1.105-1.105-2.979-1.105-4.084,0
	c-1.104,1.104-1.104,2.979,0,4.084l2.979,2.979c0.625,0.625,1.25,0.784,2.035,0.784C42.233,101.444,43.018,101.139,43.643,100.659z
	 M43.643,120.234l7.224-7.226c1.105-1.104,1.105-2.979,0-4.084c-1.104-1.104-2.979-1.104-4.084,0l-5.174,5.188l-0.944-0.944
	c-1.105-1.104-2.979-1.104-4.084,0c-1.104,1.104-1.104,2.979,0,4.084l2.979,2.979c0.625,0.625,1.25,0.784,2.035,0.784
	C42.233,121.018,43.018,120.713,43.643,120.234z M43.643,141.727l7.224-7.226c1.105-1.104,1.105-2.979,0-4.084
	c-1.104-1.104-2.979-1.104-4.084,0l-5.174,5.188l-0.944-0.944c-1.105-1.104-2.979-1.104-4.084,0c-1.104,1.104-1.104,2.979,0,4.084
	l2.979,2.979c0.625,0.625,1.25,0.782,2.035,0.782C42.233,142.51,43.018,142.206,43.643,141.727z M111.562,139.436
	c0,1.695-1.377,3.073-3.064,3.073H59c-1.697,0-3.075-1.378-3.075-3.073c0-1.688,1.378-3.064,3.075-3.064h49.497
	C110.186,136.371,111.562,137.75,111.562,139.436L111.562,139.436z"/>
</svg>
