<?xml version="1.0" encoding="utf-8"?>
<!-- Generator: Adobe Illustrator 16.0.0, SVG Export Plug-In . SVG Version: 6.00 Build 0)  -->
<!DOCTYPE svg PUBLIC "-//W3C//DTD SVG 1.1//EN" "http://www.w3.org/Graphics/SVG/1.1/DTD/svg11.dtd">
<svg version="1.1" id="Capa_1" xmlns="http://www.w3.org/2000/svg" xmlns:xlink="http://www.w3.org/1999/xlink" x="0px" y="0px"
	 width="50px" height="50px" viewBox="0 0 50 50" enable-background="new 0 0 50 50" xml:space="preserve">
<path fill="#738AFF" d="M38.648,13.061L27.762,2.174H3.651v45.105h34.998V13.061L38.648,13.061z"/>
<path fill="#FFFFFF" d="M11.429,20.06h19.443c0.429,0,0.778-0.345,0.778-0.774c0-0.434-0.352-0.779-0.778-0.779H11.429
	c-0.429,0-0.778,0.345-0.778,0.779C10.65,19.714,11,20.06,11.429,20.06L11.429,20.06z"/>
<path fill="#FFFFFF" d="M11.429,13.84h7.777c0.429,0,0.778-0.349,0.778-0.779c0-0.429-0.35-0.778-0.778-0.778h-7.777
	c-0.429,0-0.778,0.35-0.778,0.778C10.65,13.491,11,13.84,11.429,13.84L11.429,13.84z"/>
<path fill="#FFFFFF" d="M30.872,24.727H11.429c-0.429,0-0.778,0.351-0.778,0.778c0,0.431,0.35,0.779,0.778,0.779h19.443
	c0.429,0,0.778-0.351,0.778-0.779C31.65,25.077,31.301,24.727,30.872,24.727L30.872,24.727z"/>
<path fill="#FFFFFF" d="M30.872,30.951H11.429c-0.429,0-0.778,0.345-0.778,0.773c0,0.435,0.35,0.777,0.778,0.777h19.443
	c0.429,0,0.778-0.345,0.778-0.777C31.65,31.296,31.301,30.951,30.872,30.951L30.872,30.951z"/>
<path fill="#FFFFFF" d="M30.872,37.171H11.429c-0.429,0-0.778,0.351-0.778,0.779c0,0.428,0.35,0.778,0.778,0.778h19.443
	c0.429,0,0.778-0.352,0.778-0.778C31.65,37.521,31.301,37.171,30.872,37.171L30.872,37.171z"/>
<g>
	<g>
		<g>
			<defs>
				<rect id="SVGID_1_" x="3.651" y="1.785" width="42.697" height="46.43"/>
			</defs>
			<clipPath id="SVGID_2_">
				<use xlink:href="#SVGID_1_"  overflow="visible"/>
			</clipPath>
			<path clip-path="url(#SVGID_2_)" fill="#0029F7" d="M27.762,2.174v10.887H38.65L27.762,2.174z"/>
		</g>
	</g>
	<g>
		<g>
			<defs>
				<rect id="SVGID_3_" x="3.651" y="1.785" width="42.697" height="46.43"/>
			</defs>
			<clipPath id="SVGID_4_">
				<use xlink:href="#SVGID_3_"  overflow="visible"/>
			</clipPath>
			<path clip-path="url(#SVGID_4_)" fill="#0029F7" d="M46.427,37.95c0,5.153-4.178,9.329-9.335,9.329
				c-5.152,0-9.33-4.176-9.33-9.329c0-5.154,4.178-9.335,9.33-9.335C42.249,28.615,46.427,32.796,46.427,37.95L46.427,37.95z"/>
		</g>
	</g>
</g>
<path fill="#FFFFFF" d="M42.203,33.424c-0.354-0.247-0.835-0.16-1.082,0.193l-4.352,6.25l-3.072-2.521
	c-0.33-0.271-0.82-0.222-1.094,0.109c-0.274,0.331-0.226,0.82,0.108,1.094l3.724,3.057c0.141,0.115,0.311,0.177,0.491,0.177
	c0.034,0,0.068,0,0.106-0.009c0.213-0.029,0.404-0.146,0.529-0.321l4.832-6.945C42.645,34.152,42.557,33.667,42.203,33.424
	L42.203,33.424z"/>
</svg>
