<?xml version="1.0" encoding="utf-8"?>
<!-- Generator: Adobe Illustrator 16.0.0, SVG Export Plug-In . SVG Version: 6.00 Build 0)  -->
<!DOCTYPE svg PUBLIC "-//W3C//DTD SVG 1.1//EN" "http://www.w3.org/Graphics/SVG/1.1/DTD/svg11.dtd">
<svg version="1.1" id="Capa_1" xmlns="http://www.w3.org/2000/svg" xmlns:xlink="http://www.w3.org/1999/xlink" x="0px" y="0px"
	 width="50px" height="50px" viewBox="0 0 50 50" enable-background="new 0 0 50 50" xml:space="preserve">
<path fill="#95EBF0" d="M38.649,13.061L27.762,2.174H3.651V47.28h34.998V13.061z M38.649,13.061"/>
<path fill="#FFFFFF" d="M11.429,20.06h19.443c0.429,0,0.778-0.345,0.778-0.774c0-0.434-0.35-0.779-0.778-0.779H11.429
	c-0.429,0-0.778,0.345-0.778,0.779C10.65,19.714,11,20.06,11.429,20.06L11.429,20.06z M11.429,20.06"/>
<path fill="#FFFFFF" d="M11.429,13.84h7.777c0.429,0,0.778-0.349,0.778-0.779c0-0.429-0.35-0.778-0.778-0.778h-7.777
	c-0.429,0-0.778,0.35-0.778,0.778C10.65,13.491,11,13.84,11.429,13.84L11.429,13.84z M11.429,13.84"/>
<path fill="#FFFFFF" d="M30.872,24.727H11.429c-0.429,0-0.778,0.351-0.778,0.778c0,0.43,0.35,0.779,0.778,0.779h19.443
	c0.429,0,0.778-0.35,0.778-0.779C31.65,25.077,31.301,24.727,30.872,24.727L30.872,24.727z M30.872,24.727"/>
<path fill="#FFFFFF" d="M30.872,30.951H11.429c-0.429,0-0.778,0.345-0.778,0.774c0,0.434,0.35,0.778,0.778,0.778h19.443
	c0.429,0,0.778-0.345,0.778-0.778C31.65,31.296,31.301,30.951,30.872,30.951L30.872,30.951z M30.872,30.951"/>
<path fill="#FFFFFF" d="M30.872,37.171H11.429c-0.429,0-0.778,0.35-0.778,0.779c0,0.429,0.35,0.778,0.778,0.778h19.443
	c0.429,0,0.778-0.35,0.778-0.778C31.65,37.521,31.301,37.171,30.872,37.171L30.872,37.171z M30.872,37.171"/>
<g>
	<defs>
		<rect id="SVGID_1_" x="3.651" y="1.785" width="42.697" height="46.43"/>
	</defs>
	<clipPath id="SVGID_2_">
		<use xlink:href="#SVGID_1_"  overflow="visible"/>
	</clipPath>
	<path clip-path="url(#SVGID_2_)" fill="#48CCD4" d="M27.762,2.174v10.887h10.888L27.762,2.174z M27.762,2.174"/>
	<path clip-path="url(#SVGID_2_)" fill="#00B6E4" d="M46.427,37.95c0,5.153-4.178,9.33-9.335,9.33c-5.152,0-9.33-4.177-9.33-9.33
		c0-5.154,4.178-9.335,9.33-9.335C42.249,28.615,46.427,32.796,46.427,37.95L46.427,37.95z M46.427,37.95"/>
</g>
<path fill="#FFFFFF" d="M42.203,33.424c-0.353-0.247-0.835-0.16-1.082,0.193l-4.352,6.25l-3.072-2.521
	c-0.33-0.271-0.82-0.222-1.094,0.109s-0.224,0.821,0.11,1.094l3.722,3.057c0.141,0.115,0.311,0.175,0.493,0.175
	c0.034,0,0.068,0,0.106-0.008c0.213-0.03,0.406-0.145,0.531-0.322l4.831-6.945C42.645,34.153,42.557,33.667,42.203,33.424
	L42.203,33.424z M42.203,33.424"/>
</svg>
