<?xml version="1.0" encoding="utf-8"?>
<!-- Generator: Adobe Illustrator 16.0.0, SVG Export Plug-In . SVG Version: 6.00 Build 0)  -->
<!DOCTYPE svg PUBLIC "-//W3C//DTD SVG 1.1//EN" "http://www.w3.org/Graphics/SVG/1.1/DTD/svg11.dtd">
<svg version="1.1" id="Capa_1" xmlns="http://www.w3.org/2000/svg" xmlns:xlink="http://www.w3.org/1999/xlink" x="0px" y="0px"
	 width="20px" height="20px" viewBox="0 0 20 20" enable-background="new 0 0 20 20" xml:space="preserve">
<g>
	<g>
		<path fill="#FFFFFF" d="M1.542,8.126l7.477-4.375c0.159-0.095,0.356-0.095,0.519-0.003C9.696,3.84,9.795,4.01,9.795,4.195
			l0.002,1.976c0.009,0.004,0.016,0.004,0.021,0.007c0.187,0.051,0.385,0.107,0.625,0.18c0.776,0.23,1.575,0.529,2.51,0.941
			c0.812,0.356,1.607,0.817,2.361,1.371c0.541,0.392,1.047,0.848,1.51,1.351c1.256,1.367,1.943,3.181,1.887,4.979
			c-0.008,0.316-0.045,0.617-0.078,0.872c-0.031,0.251-0.246,0.442-0.5,0.447c-0.004,0.001-0.008,0.001-0.012,0.001
			c-0.25,0-0.465-0.18-0.508-0.427c-0.139-0.784-0.361-1.431-0.678-1.973c-0.396-0.678-0.936-1.246-1.559-1.646
			c-0.535-0.342-1.1-0.604-1.727-0.803c-0.732-0.232-1.539-0.377-2.469-0.444c-0.375-0.027-0.78-0.041-1.271-0.042
			c-0.015,0-0.046,0-0.088,0L9.822,12.85c0,0.185-0.098,0.354-0.258,0.446c-0.158,0.091-0.355,0.095-0.515,0.002L1.546,9.021
			c-0.161-0.092-0.259-0.262-0.26-0.446S1.382,8.219,1.542,8.126z"/>
	</g>
</g>
</svg>
