<?xml version="1.0" encoding="utf-8"?>
<!-- Generator: Adobe Illustrator 16.0.0, SVG Export Plug-In . SVG Version: 6.00 Build 0)  -->
<!DOCTYPE svg PUBLIC "-//W3C//DTD SVG 1.1//EN" "http://www.w3.org/Graphics/SVG/1.1/DTD/svg11.dtd">
<svg version="1.1" id="Capa_1" xmlns="http://www.w3.org/2000/svg" xmlns:xlink="http://www.w3.org/1999/xlink" x="0px" y="0px"
	 width="130px" height="40.121px" viewBox="68 20.733 130 40.121" enable-background="new 68 20.733 130 40.121"
	 xml:space="preserve">
<g>
	<g>
		<g>
			<path fill="#30371E" d="M106.513,47.448h5.8v-2.257h-5.8v-3.237h5.965V39.73h-8.427v13.312h8.623V50.79h-6.16V47.448z
				 M116.457,40.651h-2.464v12.392h8.675v-2.108h-6.211V40.651z M133.967,45.926c0.332-0.219,0.624-0.464,0.84-0.768
				c0.361-0.5,0.525-1.117,0.525-1.819c0-1.129-0.382-2.053-1.151-2.687c-0.768-0.645-1.813-0.935-3.137-0.935h-4.059v13.326h4.753
				c1.371,0,2.494-0.335,3.345-1.011c0.843-0.68,1.295-1.62,1.274-2.763c0-0.89-0.28-1.672-0.828-2.295
				C135.119,46.518,134.591,46.166,133.967,45.926z M129.416,41.969h1.437c0.756,0,1.25,0.139,1.523,0.359
				c0.13,0.119,0.232,0.238,0.312,0.435c0.059,0.18,0.1,0.409,0.1,0.692c0,0.613-0.18,0.995-0.551,1.275
				c-0.357,0.272-0.988,0.438-1.895,0.438h-0.926L129.416,41.969L129.416,41.969z M133.311,50.371
				c-0.316,0.244-0.906,0.409-1.765,0.393h-2.131v-3.329h1.833c0.961,0,1.628,0.163,1.998,0.434
				c0.365,0.273,0.552,0.642,0.552,1.271C133.798,49.753,133.635,50.123,133.311,50.371z M155.744,45.78L155.744,45.78l-0.264-0.139
				c-0.707-0.41-1.221-0.782-1.552-1.101c-0.167-0.166-0.279-0.306-0.344-0.432c-0.082-0.125-0.102-0.219-0.102-0.296
				c0.009-0.307,0.106-0.514,0.393-0.719c0.281-0.207,0.653-0.32,1.153-0.32c0.422,0,0.833,0.075,1.256,0.242
				c0.423,0.181,0.895,0.448,1.408,0.847l0.497,0.373v-2.653l-0.15-0.09c-0.483-0.268-0.976-0.473-1.465-0.613
				c-0.486-0.124-0.97-0.204-1.474-0.204c-1.104,0-2.061,0.309-2.797,0.924c-0.731,0.611-1.119,1.444-1.119,2.401
				c0,0.696,0.196,1.309,0.588,1.818c0.225,0.273,0.545,0.555,0.98,0.873c0.444,0.335,1.018,0.704,1.712,1.133
				c0.438,0.251,0.788,0.484,1.061,0.674c0.273,0.194,0.465,0.357,0.555,0.462c0.19,0.231,0.263,0.46,0.281,0.768
				c-0.019,0.372-0.131,0.605-0.413,0.819c-0.268,0.203-0.677,0.333-1.24,0.333c-0.524,0-1.011-0.116-1.474-0.36
				c-0.458-0.229-0.961-0.644-1.496-1.199l-0.539-0.577v3.07l0.133,0.09c0.506,0.396,1.041,0.691,1.609,0.872
				c0.576,0.194,1.201,0.284,1.879,0.284c1.111,0,2.062-0.308,2.795-0.921c0.74-0.616,1.121-1.438,1.121-2.386
				c0-0.805-0.188-1.512-0.597-2.089C157.731,47.076,156.94,46.476,155.744,45.78z M171.242,50.993
				c0.921-1.097,1.385-2.402,1.385-3.877c0-0.896-0.172-1.746-0.493-2.526c-0.328-0.766-0.817-1.468-1.458-2.096
				c-0.61-0.604-1.332-1.078-2.137-1.396c-0.82-0.324-1.666-0.486-2.558-0.486c-0.884,0-1.731,0.163-2.534,0.486
				c-0.8,0.317-1.517,0.78-2.16,1.396c-0.612,0.6-1.101,1.29-1.426,2.074c-0.351,0.793-0.52,1.598-0.52,2.436
				c0,1.519,0.466,2.873,1.374,4.021c0.896,1.138,2.094,1.894,3.557,2.259c1.093,0.774,2.115,1.361,3.087,1.768
				c1.003,0.422,1.912,0.63,2.741,0.63c0.101,0,0.176,0,0.246,0c0.075,0,0.14-0.008,0.202-0.02l0.095-0.018l1.824-1.6l-0.139-0.385
				l-0.103-0.244l-0.241,0.05c-0.234,0.055-0.436,0.082-0.632,0.098c-0.179,0.034-0.342,0.034-0.5,0.034
				c-0.472,0-0.97-0.069-1.493-0.195c-0.321-0.091-0.695-0.217-1.086-0.371C169.475,52.586,170.486,51.919,171.242,50.993z
				 M169.885,48.434c-0.22,0.514-0.511,0.975-0.911,1.359l-0.013,0.014c-0.41,0.419-0.871,0.726-1.366,0.943
				c-0.518,0.209-1.053,0.32-1.613,0.32c-0.565,0-1.095-0.111-1.617-0.331c-0.53-0.233-0.973-0.535-1.376-0.933v-0.014
				c-0.392-0.386-0.697-0.846-0.903-1.359c-0.22-0.511-0.32-1.048-0.32-1.614c0-0.573,0.101-1.112,0.32-1.637
				c0.206-0.514,0.512-0.957,0.897-1.352c0.42-0.408,0.881-0.71,1.396-0.929c0.526-0.219,1.05-0.316,1.603-0.316
				c0.561,0,1.095,0.098,1.613,0.316c0.507,0.203,0.956,0.513,1.357,0.92c0.421,0.422,0.725,0.884,0.933,1.396
				c0.216,0.506,0.316,1.028,0.316,1.602C170.201,47.386,170.101,47.923,169.885,48.434z M182.11,48.268
				c-0.012,0.792-0.266,1.381-0.832,1.855c-0.545,0.461-1.291,0.719-2.266,0.719c-0.573,0-1.073-0.103-1.496-0.28
				c-0.441-0.18-0.809-0.461-1.128-0.834c-0.164-0.192-0.283-0.422-0.344-0.693c-0.076-0.266-0.119-0.778-0.119-1.522v-6.853h-2.289
				v6.921c0,0.942,0.062,1.65,0.205,2.147c0.145,0.493,0.363,0.937,0.702,1.329l0,0l0,0c0.526,0.657,1.167,1.143,1.933,1.483
				c0.757,0.339,1.611,0.503,2.536,0.503c1.56,0,2.869-0.43,3.871-1.303c1.011-0.859,1.522-2.037,1.504-3.423v-7.658h-2.278
				L182.11,48.268L182.11,48.268z M188.317,50.906v-3.038h5.842v-2.123h-5.842v-2.917h6.026v-2.113h-8.492v12.299h8.685v-2.107
				H188.317z M148.432,42.398c-0.624-0.598-1.342-1.047-2.146-1.368c-0.821-0.304-1.68-0.47-2.577-0.47
				c-0.88,0-1.723,0.166-2.528,0.47c-0.813,0.309-1.543,0.771-2.168,1.368c-0.63,0.578-1.114,1.258-1.458,2.029
				c-0.336,0.764-0.515,1.572-0.515,2.392c0,0.86,0.165,1.69,0.5,2.46c0.332,0.767,0.824,1.46,1.473,2.073
				c0.615,0.579,1.33,1.041,2.152,1.355c0.802,0.306,1.664,0.477,2.544,0.477c0.897,0,1.757-0.154,2.564-0.464
				c0.806-0.32,1.521-0.764,2.178-1.369c0.63-0.588,1.101-1.266,1.444-2.021c0.333-0.77,0.5-1.576,0.5-2.41
				c0-0.884-0.168-1.703-0.486-2.456C149.571,43.695,149.078,43.004,148.432,42.398z M147.641,48.444
				c-0.218,0.504-0.509,0.949-0.91,1.337c-0.407,0.398-0.871,0.705-1.368,0.896c-0.526,0.204-1.062,0.304-1.654,0.304
				c-0.572,0-1.114-0.1-1.641-0.304c-0.52-0.218-0.971-0.513-1.367-0.896l0,0c-0.397-0.388-0.706-0.833-0.909-1.337
				c-0.217-0.496-0.32-1.01-0.32-1.574c0-0.549,0.104-1.076,0.32-1.588c0.22-0.498,0.512-0.931,0.909-1.315
				c0.42-0.392,0.885-0.69,1.402-0.91c0.517-0.208,1.055-0.31,1.605-0.31c0.579,0,1.114,0.102,1.628,0.31
				c0.513,0.202,0.971,0.51,1.372,0.91c0.424,0.408,0.73,0.852,0.947,1.357c0.199,0.481,0.308,0.996,0.308,1.546
				C147.963,47.435,147.854,47.948,147.641,48.444z M107.559,36.794c1.103,0,1.976-0.346,2.62-1.037
				c0.634-0.69,0.97-1.626,0.97-2.792v-5.086h-0.735v5.123c0,0.938-0.255,1.679-0.763,2.23c-0.526,0.552-1.217,0.833-2.091,0.833
				c-0.867,0-1.562-0.281-2.075-0.833c-0.523-0.551-0.782-1.292-0.782-2.23v-5.123h-0.699v5.086c0,1.177,0.314,2.115,0.958,2.792
				C105.604,36.448,106.473,36.794,107.559,36.794z M114.516,29.201l5.631,6.8h0.567v-7.687h-0.606v6.7l-5.568-6.7H113.9V36h0.615
				V29.201L114.516,29.201z M123.503,36.114h0.653V28.42h-0.653V36.114z M129.69,36.244l3.232-7.824h-0.661l-2.624,6.456
				l-2.596-6.456h-0.684l3.242,7.824H129.69L129.69,36.244z M138.961,35.589h-3.6v-3.125h3.395V31.97h-3.395v-3.05h3.508v-0.5
				h-4.124v7.694h4.216V35.589L138.961,35.589z M142.278,32.419h0.617c0.442,0,0.767,0.034,0.979,0.086
				c0.22,0.047,0.396,0.155,0.539,0.292c0.1,0.104,0.23,0.271,0.408,0.517c0.165,0.23,0.385,0.536,0.613,0.91l1.218,1.89h0.689
				l-2.096-3.233c-0.093-0.146-0.195-0.273-0.293-0.375c-0.119-0.105-0.246-0.191-0.391-0.281c0.488-0.156,0.854-0.388,1.09-0.706
				c0.246-0.309,0.362-0.707,0.362-1.168c0-0.625-0.209-1.098-0.644-1.431c-0.433-0.335-1.049-0.5-1.853-0.5h-1.852v7.694h0.609
				L142.278,32.419L142.278,32.419z M142.278,28.946h1.276c0.574,0,1.01,0.114,1.333,0.37c0.306,0.244,0.459,0.593,0.459,1.035
				c0,0.322-0.063,0.603-0.202,0.825c-0.145,0.229-0.35,0.392-0.631,0.521c-0.15,0.066-0.333,0.115-0.562,0.156
				c-0.234,0.023-0.632,0.034-1.202,0.034h-0.472V28.946L142.278,28.946z M153.181,34.117c0-0.255-0.048-0.497-0.117-0.729
				c-0.096-0.229-0.218-0.437-0.375-0.616c-0.244-0.267-0.718-0.548-1.411-0.828c-0.076-0.042-0.126-0.057-0.165-0.079
				c-0.627-0.273-1.035-0.501-1.218-0.717c-0.191-0.203-0.282-0.488-0.282-0.818c0-0.416,0.138-0.758,0.435-1.038
				c0.297-0.268,0.666-0.413,1.125-0.413c0.283,0,0.568,0.055,0.846,0.153c0.302,0.101,0.591,0.273,0.913,0.489v-0.691
				c-0.295-0.165-0.574-0.294-0.861-0.386c-0.277-0.072-0.574-0.131-0.868-0.131c-0.652,0-1.18,0.196-1.589,0.58
				c-0.415,0.387-0.613,0.873-0.613,1.458c0,0.485,0.129,0.888,0.401,1.196c0.267,0.306,0.762,0.615,1.497,0.917
				c0.704,0.297,1.151,0.551,1.345,0.771c0.203,0.231,0.29,0.514,0.29,0.857c0,0.476-0.136,0.845-0.434,1.125
				c-0.282,0.272-0.681,0.411-1.178,0.411c-0.296,0-0.615-0.075-0.927-0.207c-0.327-0.137-0.662-0.34-1.02-0.625v0.739
				c0.333,0.234,0.65,0.403,0.975,0.516c0.33,0.111,0.652,0.167,0.985,0.167c0.656,0,1.19-0.189,1.614-0.59
				C152.968,35.232,153.181,34.733,153.181,34.117z M156.285,28.42h-0.65v7.694h0.65V28.42z M163.235,35.938
				c0.423-0.117,0.785-0.296,1.118-0.543c0.474-0.356,0.842-0.802,1.111-1.351c0.27-0.554,0.396-1.156,0.396-1.785
				c0-0.623-0.128-1.216-0.396-1.777c-0.27-0.553-0.637-1.002-1.111-1.354c-0.333-0.249-0.695-0.427-1.106-0.543
				c-0.408-0.095-0.891-0.164-1.481-0.164h-2.638v7.693h2.638C162.343,36.114,162.826,36.051,163.235,35.938z M159.78,35.567V28.97
				h1.833c0.497,0,0.932,0.055,1.287,0.128c0.363,0.09,0.679,0.217,0.935,0.396c0.429,0.281,0.762,0.685,1.007,1.167
				c0.238,0.488,0.354,1.026,0.354,1.615c0,0.574-0.115,1.113-0.354,1.612c-0.245,0.488-0.578,0.873-1.007,1.167
				c-0.255,0.177-0.571,0.307-0.935,0.392c-0.355,0.083-0.79,0.12-1.287,0.12H159.78z M170.179,28.716l-3.163,7.398h0.61
				l1.079-2.562h3.186l1.08,2.562h0.614l-3.163-7.398H170.179z M168.91,33.054l1.396-3.329l1.385,3.329H168.91z M179.908,35.938
				c0.431-0.117,0.795-0.296,1.116-0.543c0.478-0.356,0.845-0.802,1.113-1.351c0.268-0.554,0.397-1.156,0.397-1.785
				c0-0.623-0.131-1.216-0.397-1.777c-0.269-0.553-0.636-1.002-1.113-1.354c-0.321-0.249-0.687-0.427-1.104-0.543
				c-0.41-0.095-0.895-0.164-1.481-0.164h-2.626v7.693h2.626C179.013,36.114,179.498,36.051,179.908,35.938z M176.452,35.567V28.97
				h1.834c0.492,0,0.932,0.055,1.288,0.128c0.358,0.09,0.684,0.217,0.935,0.396c0.427,0.281,0.761,0.685,0.997,1.167
				c0.247,0.488,0.363,1.026,0.363,1.615c0,0.574-0.116,1.113-0.363,1.612c-0.236,0.488-0.57,0.873-0.997,1.167
				c-0.251,0.177-0.575,0.307-0.935,0.392c-0.356,0.083-0.795,0.12-1.288,0.12H176.452z"/>
			<path fill="#DC7400" d="M92.562,25.168c0,0.279,0.25,0.502,0.536,0.502c0.296,0,0.545-0.223,0.545-0.502
				c0-0.269-0.249-0.5-0.545-0.5C92.812,24.668,92.562,24.899,92.562,25.168z M96.804,27.805c0-0.268,0.229-0.495,0.526-0.495
				c0.299,0,0.538,0.228,0.538,0.495c0,0.286-0.239,0.509-0.538,0.509c-0.203,0-0.385-0.111-0.477-0.268
				c0.231,0.628,0.399,1.299,0.451,1.95c0.026,0.213,0.035,0.42,0.035,0.615c0.063-0.221,0.274-0.374,0.529-0.374
				c0.295,0,0.523,0.234,0.523,0.503c0,0.277-0.228,0.498-0.523,0.498c-0.24,0-0.466-0.152-0.529-0.358
				c0,1.149-0.353,1.754-0.561,2.008l-0.05,0.077c0.075-0.054,0.166-0.077,0.269-0.077c0.292,0,0.518,0.231,0.518,0.512
				c0,0.27-0.226,0.5-0.518,0.5c-0.295,0-0.543-0.231-0.543-0.5c0-0.061,0.013-0.109,0.026-0.165
				c-0.406,0.448-0.845,0.841-1.324,1.282c0.07-0.042,0.163-0.054,0.25-0.054c0.3,0,0.537,0.217,0.537,0.501
				c0,0.268-0.237,0.497-0.537,0.497c-0.293,0-0.522-0.229-0.522-0.497c0-0.104,0.02-0.196,0.074-0.272
				c-0.436,0.388-0.895,0.782-1.412,1.272c-0.211,0.241-0.152,0.456,0.22,0.758c0.17,0.147,0.331,0.299,0.503,0.461
				c-0.041-0.066-0.054-0.144-0.054-0.238c0-0.264,0.231-0.498,0.529-0.498c0.288,0,0.531,0.233,0.531,0.498
				c0,0.285-0.243,0.515-0.531,0.515c-0.091,0-0.187-0.027-0.258-0.07c0.472,0.465,0.935,0.936,1.342,1.365
				c-0.037-0.066-0.062-0.142-0.062-0.231c0-0.271,0.244-0.504,0.539-0.504c0.291,0,0.526,0.233,0.526,0.504
				c0,0.276-0.235,0.509-0.526,0.509c-0.113,0-0.217-0.038-0.294-0.087c0.217,0.228,0.421,0.444,0.574,0.613
				c0.499,0.524,0.525,0.934,0.04,1.509c-0.146,0.167-0.333,0.358-0.563,0.577c0.065-0.023,0.142-0.049,0.213-0.049
				c0.302,0,0.541,0.227,0.541,0.509c0,0.271-0.239,0.501-0.541,0.501c-0.289,0-0.524-0.23-0.524-0.501
				c0-0.074,0.016-0.139,0.041-0.204c-0.434,0.424-0.959,0.897-1.462,1.374c0.079-0.04,0.172-0.069,0.262-0.069
				c0.292,0,0.531,0.234,0.531,0.502c0,0.28-0.238,0.503-0.531,0.503c-0.299,0-0.528-0.223-0.528-0.503
				c0-0.091,0.027-0.178,0.073-0.255c-0.483,0.445-0.934,0.869-1.288,1.203c-0.363,0.369-0.172,0.433,0.123,0.834l0.422,0.497
				c-0.02-0.064-0.036-0.128-0.036-0.209c0-0.279,0.231-0.498,0.525-0.498c0.305,0,0.542,0.219,0.542,0.498
				c0,0.286-0.237,0.501-0.542,0.501c-0.117,0-0.219-0.025-0.307-0.089c0.382,0.445,0.833,0.95,1.256,1.416
				c-0.039-0.062-0.052-0.139-0.052-0.214c0-0.279,0.231-0.498,0.527-0.498c0.295,0,0.536,0.219,0.536,0.498
				c0,0.284-0.241,0.503-0.536,0.503c-0.116,0-0.234-0.04-0.321-0.103l0.289,0.332c0.576,0.651,0.576,0.995,0.058,1.507
				l-0.375,0.296c0.054-0.011,0.116-0.021,0.182-0.021c0.291,0,0.535,0.227,0.535,0.501c0,0.275-0.245,0.495-0.535,0.495
				c-0.299,0-0.536-0.22-0.536-0.495c0-0.078,0.022-0.172,0.062-0.232c-0.602,0.485-1.15,0.943-1.694,1.382
				c0.052-0.017,0.115-0.026,0.183-0.026c0.291,0,0.536,0.216,0.536,0.498c0,0.278-0.246,0.5-0.536,0.5
				c-0.292,0-0.536-0.222-0.536-0.5c0-0.089,0.02-0.165,0.059-0.244c-0.366,0.306-0.751,0.605-1.141,0.896
				c-0.407,0.329-0.497,0.461-0.254,0.671c0.55,0.452,1.118,0.919,1.567,1.381c-0.038-0.077-0.064-0.168-0.064-0.257
				c0-0.287,0.225-0.511,0.523-0.511c0.295,0,0.538,0.224,0.538,0.511c0,0.27-0.243,0.499-0.538,0.499
				c-0.115,0-0.221-0.041-0.298-0.089c0.551,0.573,0.927,1.133,0.886,1.6c-0.155,0.948-1.125,0.846-1.716,0.489
				c-1.167-0.782-2.127-2-3.202-3.415c-0.536-0.889-0.883-1.212,0.146-1.916c0.714-0.576,1.621-1.266,3.232-2.441
				c0.464-0.336,0.464-0.474,0.053-0.965c-0.854-0.948-1.825-2.01-2.393-2.763c-0.322-0.398-0.294-0.819,0.037-1.191
				c0.938-1.115,2.625-2.562,3.471-3.343c0.36-0.332,0.435-0.526,0.156-0.832c-1.652-1.586-2.319-2.445-3.214-3.389
				c-0.476-0.629-0.364-0.939,0.145-1.464c0.549-0.566,0.607-0.592,1.929-1.833c1.947-1.778,2.205-1.833,1.434-3.248
				c-1.034-1.977-4.726-5.463-3.691-6.268c1.132-0.922,2.603-0.567,4.276,0.771c0.327,0.229,0.647,0.547,0.965,0.947
				c-0.023-0.049-0.038-0.119-0.038-0.183c0-0.278,0.238-0.507,0.526-0.507c0.305,0,0.538,0.229,0.538,0.507
				c0,0.27-0.232,0.498-0.538,0.498c-0.132,0-0.244-0.046-0.351-0.123c0.437,0.586,0.85,1.301,1.143,2.086
				C96.804,27.867,96.804,27.844,96.804,27.805z M84.95,56.132c1.852-6.146,2.632-12.924,2.632-19.298
				c0-3.04-0.302-6.083-0.955-9.056h2.812c0.516,3.125,0.732,6.298,0.732,9.466c0,7.346-1.001,14.47-3.841,21.348l-0.438,0.01
				h-0.942h-0.979l-0.429-0.01C80.71,51.714,79.71,44.59,79.71,37.244c0-3.167,0.203-6.341,0.729-9.466h2.706
				c-0.655,2.973-0.858,6.016-0.858,9.056c0,6.374,0.789,13.151,2.634,19.298H84.95z M72.575,29.996
				c0.055-0.651,0.208-1.322,0.436-1.95c-0.089,0.155-0.267,0.268-0.474,0.268c-0.291,0-0.537-0.223-0.537-0.509
				c0-0.268,0.247-0.495,0.537-0.495c0.297,0,0.536,0.228,0.536,0.495c0,0.04,0,0.062-0.009,0.104
				c0.309-0.786,0.701-1.5,1.136-2.086c-0.087,0.064-0.205,0.115-0.332,0.115c-0.296,0-0.54-0.234-0.54-0.513
				c0-0.272,0.244-0.499,0.54-0.499c0.296,0,0.537,0.227,0.537,0.499c0,0.062-0.013,0.127-0.038,0.191
				c0.311-0.396,0.629-0.715,0.934-0.932c1.683-1.339,3.154-1.694,4.277-0.772c1.036,0.804-2.639,4.291-3.684,6.267
				c-0.769,1.415-0.514,1.469,1.435,3.248c1.329,1.24,1.381,1.266,1.93,1.833c0.509,0.525,0.615,0.834,0.156,1.464
				c-0.908,0.944-1.576,1.803-3.229,3.389c-0.28,0.305-0.203,0.5,0.157,0.832c0.843,0.782,2.531,2.228,3.483,3.343
				c0.335,0.372,0.358,0.793,0.023,1.191c-0.564,0.753-1.537,1.814-2.393,2.763c-0.409,0.49-0.396,0.629,0.063,0.965
				c1.602,1.176,2.51,1.865,3.226,2.441c1.023,0.704,0.688,1.027,0.14,1.916c-1.073,1.415-2.022,2.632-3.2,3.415
				c-0.588,0.356-1.561,0.459-1.717-0.489c-0.037-0.468,0.336-1.026,0.9-1.6c-0.091,0.048-0.196,0.089-0.312,0.089
				c-0.296,0-0.537-0.229-0.537-0.499c0-0.287,0.241-0.511,0.537-0.511c0.298,0,0.54,0.224,0.54,0.511
				c0,0.09-0.028,0.18-0.079,0.257c0.464-0.462,1.007-0.93,1.562-1.381c0.258-0.209,0.156-0.342-0.242-0.671
				c-0.407-0.306-0.81-0.612-1.203-0.916c0.078,0.072,0.128,0.189,0.128,0.311c0,0.272-0.246,0.507-0.541,0.507
				c-0.293,0-0.521-0.233-0.521-0.507c0-0.279,0.228-0.509,0.521-0.509c0.106,0,0.208,0.035,0.286,0.077
				c-0.592-0.476-1.181-0.972-1.833-1.496c0.054,0.074,0.078,0.168,0.078,0.26c0,0.275-0.248,0.495-0.538,0.495
				c-0.293,0-0.525-0.22-0.525-0.495c0-0.274,0.231-0.501,0.525-0.501c0.076,0,0.138,0.01,0.218,0.032l-0.396-0.308
				c-0.527-0.513-0.527-0.856,0.05-1.507l0.281-0.318c-0.077,0.048-0.166,0.072-0.27,0.072c-0.307,0-0.538-0.227-0.538-0.496
				c0-0.284,0.231-0.516,0.538-0.516c0.284,0,0.527,0.231,0.527,0.516c0,0.062-0.012,0.126-0.037,0.177
				c0.438-0.476,0.865-0.986,1.255-1.423c-0.103,0.062-0.218,0.116-0.35,0.116c-0.291,0-0.532-0.233-0.532-0.5
				c0-0.278,0.241-0.512,0.532-0.512c0.297,0,0.542,0.232,0.542,0.512c0,0.077-0.031,0.155-0.064,0.232l0.42-0.496
				c0.31-0.402,0.486-0.466,0.127-0.834c-0.345-0.335-0.806-0.759-1.281-1.204c0.042,0.077,0.076,0.165,0.076,0.256
				c0,0.28-0.24,0.503-0.533,0.503c-0.295,0-0.539-0.223-0.539-0.503c0-0.268,0.244-0.502,0.539-0.502
				c0.1,0,0.191,0.028,0.268,0.068c-0.516-0.476-1.046-0.962-1.487-1.387c0.04,0.064,0.053,0.143,0.053,0.231
				c0,0.277-0.23,0.504-0.527,0.504c-0.289,0-0.536-0.227-0.536-0.504c0-0.281,0.248-0.497,0.536-0.497
				c0.091,0,0.179,0.007,0.255,0.051c-0.242-0.232-0.449-0.437-0.587-0.604c-0.5-0.575-0.473-0.985,0.025-1.509
				c0.155-0.17,0.346-0.373,0.562-0.599c-0.077,0.047-0.173,0.086-0.291,0.086c-0.296,0-0.526-0.23-0.526-0.496
				c0-0.288,0.23-0.519,0.526-0.519c0.291,0,0.536,0.231,0.536,0.519c0,0.076-0.026,0.149-0.063,0.228
				c0.412-0.435,0.885-0.934,1.371-1.411c-0.078,0.051-0.166,0.065-0.254,0.065c-0.301,0-0.542-0.221-0.542-0.498
				c0-0.287,0.242-0.499,0.542-0.499c0.29,0,0.537,0.211,0.537,0.499c0,0.086-0.027,0.166-0.069,0.226
				c0.17-0.15,0.323-0.304,0.492-0.439c0.381-0.302,0.434-0.517,0.216-0.758c-0.504-0.476-0.963-0.873-1.383-1.247
				c0.063,0.078,0.089,0.171,0.089,0.271c0,0.28-0.246,0.5-0.521,0.5c-0.312,0-0.549-0.22-0.549-0.5
				c0-0.274,0.238-0.503,0.549-0.503c0.086,0,0.177,0.031,0.25,0.068c-0.521-0.478-0.997-0.896-1.432-1.395
				c0.035,0.076,0.064,0.155,0.064,0.241c0,0.27-0.242,0.5-0.536,0.5c-0.298,0-0.526-0.231-0.526-0.5
				c0-0.281,0.228-0.512,0.526-0.512c0.126,0,0.242,0.053,0.342,0.114l-0.1-0.114c-0.207-0.254-0.562-0.884-0.562-2.088
				c-0.041,0.254-0.257,0.438-0.542,0.438c-0.291,0-0.523-0.22-0.523-0.498c0-0.27,0.232-0.503,0.523-0.503
				c0.284,0,0.515,0.194,0.542,0.449C72.528,30.471,72.537,30.237,72.575,29.996z M76.102,25.168c0,0.279,0.242,0.502,0.532,0.502
				c0.298,0,0.542-0.223,0.542-0.502c0-0.269-0.244-0.5-0.542-0.5C76.344,24.668,76.102,24.899,76.102,25.168z"/>
		</g>
	</g>
</g>
</svg>
