<?xml version="1.0" encoding="utf-8"?>
<!-- Generator: Adobe Illustrator 16.0.0, SVG Export Plug-In . SVG Version: 6.00 Build 0)  -->
<!DOCTYPE svg PUBLIC "-//W3C//DTD SVG 1.1//EN" "http://www.w3.org/Graphics/SVG/1.1/DTD/svg11.dtd">
<svg version="1.1" id="Capa_1" xmlns="http://www.w3.org/2000/svg" xmlns:xlink="http://www.w3.org/1999/xlink" x="0px" y="0px"
	 width="182.857px" height="200px" viewBox="68.573 75 182.857 200" enable-background="new 68.573 75 182.857 200"
	 xml:space="preserve">
<g>
	<text transform="matrix(1 0 0 1 76.9209 217.1172)" fill="#F18500" font-family="'Catamaran-Medium'" font-size="44.8706">X</text>
	
		<text transform="matrix(0.9848 0 -0.1736 0.9848 178.4043 240.9072)" fill="#F18500" font-family="'Catamaran-Medium'" font-size="45.562">N</text>
	
		<text transform="matrix(0.9848 0 -0.1736 0.9848 170.5596 118.0166)" fill="#F18500" font-family="'Catamaran-Medium'" font-size="31.237">n</text>
	
		<text transform="matrix(1 0 0 1 168.0859 193.8516)" fill="#F18500" font-family="'Catamaran-Medium'" font-size="33.2005" letter-spacing="-2">= 1</text>
	<text transform="matrix(1 0 0 1 163.9404 167.1494)" fill="#F18500" font-family="'Catamaran-Medium'" font-size="64.1217">∑</text>
	
		<text transform="matrix(0.9848 0 -0.1736 0.9848 204.5029 156.1016)" fill="#F18500" font-family="'Catamaran-Medium'" font-size="45.562">x</text>
	
		<text transform="matrix(0.9848 0 -0.1736 0.9848 224.8574 166.9639)" fill="#F18500" font-family="'Catamaran-Medium'" font-size="36.3987">i</text>
	
		<text transform="matrix(0.9848 0 -0.1736 0.9848 156.8125 192.9111)" fill="#F18500" font-family="'Catamaran-Medium'" font-size="29.4611">i</text>
	<text transform="matrix(1 0 0 1 113.5303 213.5312)" fill="#F18500" font-family="'Catamaran-Medium'" font-size="44.8706">=</text>
	
		<line fill="none" stroke="#F18500" stroke-width="2.0484" stroke-miterlimit="10" x1="76" y1="183.089" x2="106.056" y2="183.089"/>
	
		<line fill="none" stroke="#F18500" stroke-width="2.0484" stroke-miterlimit="10" x1="148.555" y1="201.188" x2="244" y2="201.188"/>
</g>
</svg>
