<?xml version="1.0" encoding="utf-8"?>
<!-- Generator: Adobe Illustrator 16.0.0, SVG Export Plug-In . SVG Version: 6.00 Build 0)  -->
<!DOCTYPE svg PUBLIC "-//W3C//DTD SVG 1.1//EN" "http://www.w3.org/Graphics/SVG/1.1/DTD/svg11.dtd">
<svg version="1.1" id="Capa_1" xmlns="http://www.w3.org/2000/svg" xmlns:xlink="http://www.w3.org/1999/xlink" x="0px" y="0px"
	 width="220px" height="130px" viewBox="89.5 53.384 220 130" enable-background="new 89.5 53.384 220 130" xml:space="preserve">
<g>
	<text transform="matrix(1 0 0 1 99.125 153.2649)" fill="#F18500" font-family="'Catamaran-Medium'" font-size="31.6236">S</text>
	<text transform="matrix(1 0 0 1 180.7217 83.4221)" fill="#F18500" font-family="'Catamaran-Medium'" font-size="21.6809">n</text>
	
		<text transform="matrix(1 0 0 1 179.6826 136.8684)" fill="#F18500" font-family="'Catamaran-Medium'" font-size="23.3988" letter-spacing="-1">= 1</text>
	<text transform="matrix(1 0 0 1 206.1562 169.637)" fill="#F18500" font-family="'Catamaran-Medium'" font-size="31.6236">n</text>
	<text transform="matrix(1 0 0 1 225.6797 169.9143)" fill="#F18500" font-family="'Catamaran-Medium'" font-size="28.9119">-1</text>
	<text transform="matrix(1 0 0 1 176.7607 118.0491)" fill="#F18500" font-family="'Catamaran-Medium'" font-size="45.1913">∑</text>
	<text transform="matrix(1 0 0 1 207.043 110.2634)" fill="#F18500" font-family="'Catamaran-Medium'" font-size="31.6236">x</text>
	<text transform="matrix(1 0 0 1 198.2207 110.2634)" fill="#F18500" font-family="'Catamaran-Medium'" font-size="31.6236">(</text>
	<text transform="matrix(1 0 0 1 260.0947 110.2634)" fill="#F18500" font-family="'Catamaran-Medium'" font-size="31.6236">)</text>
	<text transform="matrix(1 0 0 1 268.917 99.7322)" fill="#F18500" font-family="'Catamaran-Medium'" font-size="18.4365">2</text>
	<text transform="matrix(1 0 0 1 242.1689 110.2634)" fill="#F18500" font-family="'Catamaran-Medium'" font-size="31.6236">x</text>
	<text transform="matrix(1 0 0 1 222.3428 117.9182)" fill="#F18500" font-family="'Catamaran-Medium'" font-size="25.2635">i</text>
	<text transform="matrix(1 0 0 1 173.2314 136.2043)" fill="#F18500" font-family="'Catamaran-Medium'" font-size="20.4483">i</text>
	<text transform="matrix(1 0 0 1 118.0376 150.7375)" fill="#F18500" font-family="'Catamaran-Medium'" font-size="31.6236">=</text>
	
		<line fill="none" stroke="#F18500" stroke-width="1.4436" stroke-miterlimit="10" x1="165.917" y1="142.037" x2="282.942" y2="142.037"/>
	
		<line fill="none" stroke="#F18500" stroke-width="1.4436" stroke-miterlimit="10" x1="242.688" y1="91.613" x2="260.054" y2="91.613"/>
	
		<line fill="none" stroke="#F18500" stroke-width="1.4436" stroke-miterlimit="10" x1="231.33" y1="101.874" x2="240.013" y2="101.874"/>
	<polyline fill="none" stroke="#F18500" stroke-width="1.4436" stroke-miterlimit="10" points="138.493,129.303 149.543,176.073 
		175.198,66.748 299.125,66.748 	"/>
</g>
</svg>
