<?xml version="1.0" encoding="utf-8"?>
<!-- Generator: Adobe Illustrator 16.0.0, SVG Export Plug-In . SVG Version: 6.00 Build 0)  -->
<!DOCTYPE svg PUBLIC "-//W3C//DTD SVG 1.1//EN" "http://www.w3.org/Graphics/SVG/1.1/DTD/svg11.dtd">
<svg version="1.1" id="Capa_1" xmlns="http://www.w3.org/2000/svg" xmlns:xlink="http://www.w3.org/1999/xlink" x="0px" y="0px"
	 width="210.289px" height="125px" viewBox="0 0 210.289 125" enable-background="new 0 0 210.289 125" xml:space="preserve">
<g>
	
		<text transform="matrix(0.9848 0 -0.1736 0.9848 13.4321 97.5293)" fill="#F18500" font-family="'Catamaran-Medium'" font-size="34.9582">S</text>
	
		<text transform="matrix(0.9848 0 -0.1736 0.9848 33.2856 86.0649)" fill="#F18500" font-family="'Catamaran-Medium'" font-size="20.3792">2</text>
	
		<text transform="matrix(0.9848 0 -0.1736 0.9848 88.6245 21.4937)" fill="#F18500" font-family="'Catamaran-Medium'" font-size="23.9671">n</text>
	<text transform="matrix(1 0 0 1 86.7256 79.6777)" fill="#F18500" font-family="'Catamaran-Medium'" font-size="25.4736">= 1</text>
	<g>
		
			<text transform="matrix(0.9848 0 -0.1736 0.9848 114.2563 115.3545)" fill="#F18500" font-family="'Catamaran-Medium'" font-size="34.9582">n</text>
		<text transform="matrix(1 0 0 1 137.23 115.6543)" fill="#F18500" font-family="'Catamaran-Medium'" font-size="31.4755">-1</text>
	</g>
	<text transform="matrix(1 0 0 1 83.5454 59.1914)" fill="#F18500" font-family="'Catamaran-Medium'" font-size="49.1984">∑</text>
	
		<text transform="matrix(0.9848 0 -0.1736 0.9848 115.5278 50.7148)" fill="#F18500" font-family="'Catamaran-Medium'" font-size="34.9582">x</text>
	
		<text transform="matrix(0.9848 0 -0.1736 0.9848 105.9233 50.7148)" fill="#F18500" font-family="'Catamaran-Medium'" font-size="34.9582">(</text>
	
		<text transform="matrix(0.9848 0 -0.1736 0.9848 173.2837 50.7148)" fill="#F18500" font-family="'Catamaran-Medium'" font-size="34.9582">)</text>
	
		<text transform="matrix(0.9848 0 -0.1736 0.9848 184.9092 39.251)" fill="#F18500" font-family="'Catamaran-Medium'" font-size="20.3792">2</text>
	
		<text transform="matrix(0.9848 0 -0.1736 0.9848 153.7671 50.7148)" fill="#F18500" font-family="'Catamaran-Medium'" font-size="34.9582">x</text>
	
		<text transform="matrix(0.9848 0 -0.1736 0.9848 130.7153 59.0493)" fill="#F18500" font-family="'Catamaran-Medium'" font-size="27.9275">i</text>
	
		<text transform="matrix(0.9848 0 -0.1736 0.9848 78.0757 78.958)" fill="#F18500" font-family="'Catamaran-Medium'" font-size="22.6045">i</text>
	<text transform="matrix(1 0 0 1 44.8672 94.7773)" fill="#F18500" font-family="'Catamaran-Medium'" font-size="34.4276">=</text>
	
		<line fill="none" stroke="#F18500" stroke-width="1.5716" stroke-miterlimit="10" x1="71.743" y1="85.312" x2="199.145" y2="85.312"/>
	
		<line fill="none" stroke="#F18500" stroke-width="1.5716" stroke-miterlimit="10" x1="155.32" y1="30.414" x2="174.225" y2="30.414"/>
	
		<line fill="none" stroke="#F18500" stroke-width="1.5716" stroke-miterlimit="10" x1="142.955" y1="41.585" x2="152.408" y2="41.585"/>
</g>
</svg>
